<?xml version="1.0" encoding="utf-8"?>
<!-- Generator: Adobe Illustrator 26.0.1, SVG Export Plug-In . SVG Version: 6.00 Build 0)  -->
<svg version="1.1" id="Слой_1" xmlns="http://www.w3.org/2000/svg" xmlns:xlink="http://www.w3.org/1999/xlink" x="0px" y="0px"
	 viewBox="0 0 141.73 141.73" style="enable-background:new 0 0 141.73 141.73;" xml:space="preserve">
<style type="text/css">
	.st0{fill:#FFFFFF;}
	.st1{fill:#1E1E1C;}
	.st2{fill:#2D57A3;}
	.st3{fill:#E73B31;}
	.st4{fill:none;}
	.st5{fill:#FFFFFF;stroke:#FFFFFF;stroke-width:0.4524;stroke-miterlimit:10;}
</style>
<rect x="-4.94" y="-5.25" class="st0" width="151.95" height="151.95"/>
<g>
	<path class="st1" d="M130.12,57.54L128,64.77l-3.51,12.02l-2.18,7.44H12.1c-0.16,0-0.33-0.01-0.48-0.04l2.17-7.4l3.51-12.02
		l2.12-7.26h110.21C129.8,57.51,129.96,57.52,130.12,57.54z"/>
	<path class="st0" d="M19.42,57.51l-2.12,7.26H8.5v-3.67c0-1.98,1.61-3.59,3.6-3.59H19.42z"/>
	<polygon class="st2" points="17.3,64.77 13.78,76.78 8.5,76.78 8.5,64.77 	"/>
	<path class="st3" d="M13.78,76.78l-2.17,7.4c-1.76-0.23-3.11-1.73-3.11-3.55v-3.85H13.78z"/>
	<path class="st0" d="M133.23,61.09v3.67H128l2.11-7.22C131.88,57.78,133.23,59.28,133.23,61.09z"/>
	<polygon class="st2" points="133.23,64.77 133.23,76.78 124.49,76.78 128,64.77 	"/>
	<path class="st3" d="M133.23,76.78v3.85c0,1.98-1.61,3.59-3.6,3.59h-7.32l2.18-7.44H133.23z"/>
</g>
<line class="st4" x1="68.37" y1="79.74" x2="68.13" y2="79.74"/>
<path class="st4" d="M133.23,61.09v19.54c0,1.98-1.61,3.59-3.6,3.59H12.1c-0.16,0-0.33-0.01-0.48-0.04
	c-1.76-0.23-3.11-1.73-3.11-3.55V61.09c0-1.98,1.61-3.59,3.6-3.59h117.53c0.16,0,0.33,0.01,0.48,0.04
	C131.88,57.78,133.23,59.28,133.23,61.09z"/>
<g>
	<path class="st5" d="M57.21,75.76h-1.96v-5.74c0.03-0.87,0.07-1.75,0.13-2.63h-0.06c-0.09,0.38-0.19,0.72-0.29,1.01l-2.48,7.36
		h-1.81l-2.1-6.08c-0.26-0.76-0.48-1.52-0.67-2.29h-0.06c0.09,0.94,0.14,1.79,0.14,2.56v5.82h-1.86v-9.72h3.1l1.77,5.1
		c0.27,0.82,0.48,1.62,0.63,2.39c0.09-0.41,0.17-0.76,0.25-1.06c0.08-0.3,0.17-0.6,0.27-0.91l1.87-5.52h3.15V75.76z"/>
	<path class="st5" d="M68.58,70.97c0,0.97-0.19,1.83-0.56,2.6c-0.38,0.76-0.92,1.36-1.64,1.78c-0.72,0.42-1.56,0.64-2.53,0.64
		c-1,0-1.86-0.21-2.58-0.64s-1.27-1.03-1.63-1.8c-0.37-0.77-0.55-1.66-0.55-2.65c0-1,0.19-1.88,0.56-2.64
		c0.37-0.76,0.91-1.36,1.63-1.78c0.72-0.42,1.58-0.64,2.58-0.64c0.76,0,1.44,0.13,2.04,0.38c0.6,0.25,1.1,0.61,1.49,1.07
		c0.4,0.46,0.7,1,0.9,1.62C68.48,69.52,68.58,70.21,68.58,70.97z M66.5,70.92c0-0.42-0.05-0.85-0.16-1.27
		c-0.1-0.42-0.27-0.81-0.49-1.16s-0.5-0.63-0.84-0.84c-0.34-0.21-0.73-0.32-1.19-0.32c-0.6,0-1.1,0.18-1.5,0.53s-0.7,0.81-0.89,1.36
		s-0.28,1.12-0.28,1.69s0.09,1.13,0.28,1.68c0.19,0.55,0.49,1,0.89,1.35c0.41,0.35,0.91,0.53,1.51,0.53c0.45,0,0.84-0.1,1.18-0.31
		c0.34-0.21,0.62-0.49,0.83-0.84c0.22-0.35,0.38-0.74,0.48-1.15C66.44,71.76,66.5,71.34,66.5,70.92z"/>
	<path class="st5" d="M77.49,73.8l0.07,1.72c-0.81,0.21-1.54,0.32-2.21,0.32c-0.76,0-1.46-0.1-2.11-0.3s-1.21-0.5-1.7-0.92
		c-0.49-0.41-0.87-0.92-1.13-1.53c-0.26-0.61-0.39-1.31-0.39-2.1c0-0.79,0.12-1.5,0.36-2.13s0.58-1.16,1.04-1.59s1-0.76,1.63-0.98
		c0.64-0.22,1.35-0.33,2.13-0.33c0.7,0,1.49,0.14,2.35,0.42l-0.16,1.67c-0.64-0.35-1.34-0.53-2.08-0.53c-0.64,0-1.2,0.14-1.68,0.41
		c-0.48,0.27-0.85,0.65-1.11,1.14s-0.39,1.05-0.39,1.69c0,0.66,0.14,1.25,0.41,1.78c0.27,0.53,0.66,0.94,1.16,1.22
		c0.5,0.29,1.09,0.43,1.77,0.43C76.07,74.21,76.75,74.07,77.49,73.8z"/>
	<path class="st5" d="M87.12,75.76h-2.53l-3.15-4.01c-0.04-0.05-0.19-0.27-0.46-0.64c0.03,0.29,0.04,0.58,0.04,0.86v3.79h-1.96
		v-9.72h1.96v3.45c0,0.27-0.01,0.52-0.04,0.78c0.28-0.38,0.45-0.6,0.51-0.67l3.03-3.56h2.38l-3.98,4.49L87.12,75.76z"/>
	<path class="st5" d="M94.47,66.05h1.89v5.89c0,0.89-0.14,1.63-0.41,2.23c-0.28,0.6-0.7,1.05-1.28,1.36
		c-0.58,0.31-1.32,0.46-2.23,0.46c-0.91,0-1.67-0.15-2.26-0.44s-1.04-0.74-1.33-1.34s-0.43-1.36-0.43-2.28v-5.87h1.96v5.7
		c0,0.81,0.15,1.45,0.46,1.94s0.85,0.73,1.62,0.73c0.53,0,0.94-0.13,1.24-0.38s0.5-0.59,0.6-0.99c0.11-0.41,0.16-0.86,0.16-1.38
		V66.05z"/>
	<path class="st5" d="M100.66,72.08v3.69H98.7v-9.72h2.67c0.55,0,1.05,0.04,1.49,0.13c0.44,0.09,0.85,0.25,1.21,0.5
		c0.37,0.26,0.65,0.6,0.86,1.01c0.21,0.41,0.31,0.85,0.31,1.32c0,0.54-0.1,1.01-0.29,1.41c-0.19,0.4-0.46,0.72-0.8,0.97
		s-0.73,0.43-1.19,0.55c-0.46,0.12-0.94,0.17-1.45,0.17C101.31,72.11,101.03,72.1,100.66,72.08z M100.66,70.57
		c0.34,0,0.65-0.01,0.94-0.04c0.28-0.03,0.54-0.09,0.76-0.18s0.41-0.25,0.56-0.46c0.14-0.21,0.22-0.49,0.22-0.84
		c0-0.47-0.12-0.81-0.36-1.03s-0.52-0.35-0.85-0.4s-0.75-0.08-1.27-0.09V70.57z"/>
</g>
<g>
	<path class="st0" d="M38.82,76.63l-0.35-0.02c0.07-0.15,0.11-0.28,0.11-0.41c0-0.07-0.02-0.13-0.05-0.19
		c-0.03-0.06-0.08-0.09-0.14-0.09c-0.05,0-0.1,0.05-0.14,0.13c-0.04,0.09-0.07,0.18-0.11,0.26c-0.04,0.09-0.09,0.17-0.15,0.23
		c-0.07,0.07-0.16,0.1-0.28,0.1c-0.11,0-0.21-0.03-0.28-0.1c-0.07-0.07-0.13-0.15-0.16-0.25c-0.03-0.1-0.05-0.21-0.05-0.32
		c0-0.12,0.02-0.25,0.06-0.4l0.31,0.03c-0.04,0.13-0.06,0.24-0.06,0.34c0,0.07,0.01,0.14,0.04,0.2c0.02,0.06,0.07,0.09,0.13,0.09
		c0.05,0,0.09-0.04,0.13-0.13c0.03-0.08,0.07-0.17,0.1-0.27c0.03-0.09,0.08-0.17,0.15-0.24s0.16-0.1,0.29-0.1
		c0.11,0,0.21,0.03,0.29,0.09c0.08,0.06,0.14,0.14,0.17,0.24c0.04,0.1,0.06,0.21,0.06,0.32C38.88,76.29,38.86,76.45,38.82,76.63z"/>
	<path class="st0" d="M38.48,74.28l0.32-0.02c0.02,0.11,0.03,0.2,0.04,0.28c0,0.14-0.02,0.24-0.07,0.32
		c-0.05,0.08-0.12,0.14-0.21,0.17c-0.09,0.03-0.21,0.05-0.34,0.05l-0.67,0.01l0,0.3l-0.31,0l0-0.31l-0.33,0l-0.14-0.41l0.46-0.01
		l0-0.37l0.31,0l0,0.37l0.58-0.01c0.12,0,0.22-0.02,0.28-0.04c0.06-0.03,0.1-0.1,0.09-0.2C38.51,74.38,38.5,74.33,38.48,74.28z"/>
	<path class="st0" d="M36.92,73.58L36.93,74l-0.39,0.01l-0.01-0.43L36.92,73.58z M38.82,73.56l0.01,0.42l-1.6,0.02l-0.01-0.42
		L38.82,73.56z"/>
	<path class="st0" d="M38.4,72.06l0.35-0.03c0.04,0.14,0.06,0.26,0.07,0.37c0,0.12-0.02,0.23-0.05,0.34
		c-0.04,0.1-0.09,0.19-0.16,0.26c-0.07,0.07-0.16,0.13-0.26,0.17c-0.1,0.04-0.22,0.06-0.34,0.06c-0.16,0-0.3-0.03-0.42-0.1
		c-0.12-0.07-0.22-0.16-0.29-0.29s-0.1-0.26-0.11-0.42c0-0.12,0.01-0.23,0.05-0.35l0.33,0.03c-0.04,0.09-0.05,0.18-0.05,0.26
		c0,0.09,0.02,0.16,0.07,0.23c0.04,0.07,0.1,0.12,0.17,0.16c0.07,0.04,0.15,0.05,0.24,0.05c0.14,0,0.26-0.05,0.35-0.13
		c0.09-0.08,0.13-0.2,0.13-0.34C38.47,72.24,38.44,72.15,38.4,72.06z"/>
	<path class="st0" d="M38.78,70.26l0.01,0.52L38.2,71.2c-0.07,0.05-0.15,0.1-0.23,0.15c0.07-0.01,0.14-0.01,0.21-0.01l0.61-0.01
		l0.01,0.42l-2.33,0.03l-0.01-0.42l1.08-0.01c0.11,0,0.21,0,0.32,0.01c-0.08-0.05-0.14-0.1-0.19-0.13l-0.48-0.38l-0.01-0.48
		l0.72,0.59L38.78,70.26z"/>
	<path class="st0" d="M38.33,68.75l0.36-0.01c0.08,0.17,0.12,0.35,0.12,0.55c0,0.13-0.02,0.25-0.05,0.35
		c-0.04,0.1-0.09,0.19-0.16,0.27c-0.07,0.07-0.16,0.13-0.26,0.17c-0.1,0.04-0.22,0.06-0.35,0.06c-0.12,0-0.23-0.01-0.34-0.05
		c-0.1-0.03-0.19-0.08-0.27-0.15c-0.08-0.07-0.14-0.15-0.18-0.24c-0.04-0.1-0.07-0.21-0.07-0.33c0-0.12,0.02-0.23,0.06-0.32
		c0.04-0.09,0.1-0.17,0.18-0.23c0.07-0.06,0.16-0.1,0.26-0.13c0.1-0.03,0.21-0.05,0.33-0.05c0.02,0,0.04,0,0.05,0
		c0.01,0,0.02,0,0.04,0c0.02,0,0.03,0,0.06,0l0.01,1.08c0.13-0.01,0.22-0.06,0.29-0.15c0.07-0.09,0.1-0.2,0.1-0.33
		C38.49,69.1,38.44,68.94,38.33,68.75z M37.8,69.04c-0.07,0-0.14,0.02-0.2,0.04s-0.11,0.06-0.14,0.11
		c-0.04,0.05-0.05,0.11-0.05,0.18c0,0.07,0.02,0.14,0.06,0.19c0.04,0.05,0.09,0.09,0.15,0.12c0.06,0.03,0.13,0.04,0.2,0.05
		L37.8,69.04z"/>
	<path class="st0" d="M38.74,67.88l0.01,0.42l-1.12,0.01c-0.27,0.01-0.43,0.01-0.48,0.02l0-0.38l0.4-0.01
		c-0.13-0.03-0.23-0.09-0.31-0.16c-0.08-0.07-0.12-0.17-0.12-0.29c0-0.04,0-0.08,0.01-0.12l0.39,0c-0.01,0.06-0.02,0.1-0.02,0.15
		c0,0.1,0.03,0.18,0.08,0.23c0.05,0.06,0.12,0.1,0.2,0.12c0.08,0.02,0.17,0.03,0.27,0.03l0.03,0L38.74,67.88z"/>
	<path class="st0" d="M38.69,67.16l-0.35-0.01c0.07-0.15,0.11-0.28,0.11-0.41c0-0.07-0.02-0.13-0.05-0.19
		c-0.03-0.06-0.08-0.09-0.14-0.09c-0.05,0-0.1,0.05-0.14,0.13c-0.04,0.09-0.07,0.18-0.11,0.26s-0.09,0.17-0.15,0.23
		c-0.07,0.07-0.16,0.1-0.28,0.1c-0.11,0-0.21-0.03-0.28-0.1c-0.07-0.07-0.13-0.15-0.16-0.25c-0.03-0.1-0.05-0.21-0.05-0.32
		c0-0.12,0.02-0.25,0.06-0.4l0.31,0.03c-0.04,0.13-0.06,0.24-0.06,0.34c0,0.07,0.01,0.14,0.04,0.2c0.03,0.06,0.07,0.09,0.13,0.09
		c0.05,0,0.09-0.04,0.13-0.13c0.03-0.08,0.07-0.17,0.1-0.27c0.03-0.09,0.08-0.17,0.15-0.24s0.16-0.1,0.29-0.1
		c0.11,0,0.21,0.03,0.29,0.09c0.08,0.06,0.14,0.15,0.17,0.25c0.04,0.1,0.06,0.21,0.06,0.32C38.76,66.82,38.74,66.98,38.69,67.16z"/>
</g>
<path class="st4" d="M133.23,61.09v19.54c0,1.98-1.61,3.59-3.6,3.59H12.1c-0.16,0-0.33-0.01-0.48-0.04
	c-1.76-0.23-3.11-1.73-3.11-3.55V61.09c0-1.98,1.61-3.59,3.6-3.59h117.53c0.16,0,0.33,0.01,0.48,0.04
	C131.88,57.78,133.23,59.28,133.23,61.09z"/>
</svg>
