<?xml version="1.0" encoding="utf-8"?>
<!-- Generator: Adobe Illustrator 26.0.1, SVG Export Plug-In . SVG Version: 6.00 Build 0)  -->
<svg version="1.1" id="Слой_1" xmlns="http://www.w3.org/2000/svg" xmlns:xlink="http://www.w3.org/1999/xlink" x="0px" y="0px"
	 viewBox="0 0 141.7 141.7" style="enable-background:new 0 0 141.7 141.7;" xml:space="preserve">
<style type="text/css">
	.st0{fill:#1E1F1D;}
	.st1{fill:#FFFFFF;}
	.st2{fill:#2F58A3;}
	.st3{fill:#E73B32;}
	.st4{fill:none;}
	.st5{enable-background:new    ;}
	.st6{fill:none;stroke:#FFFFFF;stroke-width:0.2253;stroke-miterlimit:10;}
	.st7{fill:none;stroke:#000000;stroke-width:0.1298;stroke-miterlimit:10;}
	.st8{fill:none;stroke:#020203;stroke-width:0.1298;stroke-miterlimit:10;}
	.st9{fill:none;stroke:#1E1E1C;stroke-width:0.125;stroke-miterlimit:10;}
	.st10{fill:#020203;}
	.st11{font-family:'HeliosThin';}
	.st12{font-size:3.1219px;}
	.st13{fill:none;stroke:#020203;stroke-width:0.165;stroke-miterlimit:10;}
	.st14{font-size:3.0134px;}
	.st15{fill:none;stroke:#020203;stroke-width:0.125;stroke-miterlimit:10;}
</style>
<image style="overflow:visible;" width="591" height="591" xlink:href="5B20EC76.jpg"  transform="matrix(0.24 0 0 0.24 0 -0.14)">
</image>
<g>
	<g>
		<g>
			<path class="st0" d="M95.2,65.4l-0.9,3l-1.4,4.9L92,76.4H46.7c-0.1,0-0.1,0-0.2,0l0.9-3l1.4-4.9l0.9-3H95
				C95.1,65.4,95.2,65.4,95.2,65.4z"/>
		</g>
		<g>
			<path class="st1" d="M49.7,65.4l-0.9,3h-3.6v-1.5c0-0.8,0.7-1.5,1.5-1.5H49.7z"/>
		</g>
		<g>
			<polygon class="st2" points="48.8,68.4 47.4,73.3 45.2,73.3 45.2,68.4 			"/>
		</g>
		<g>
			<path class="st3" d="M47.4,73.3l-0.9,3c-0.7-0.1-1.3-0.7-1.3-1.5v-1.6L47.4,73.3L47.4,73.3z"/>
		</g>
		<g>
			<path class="st1" d="M96.5,66.8v1.5h-2.2l0.9-3C96,65.5,96.5,66.1,96.5,66.8z"/>
		</g>
		<g>
			<polygon class="st2" points="96.5,68.4 96.5,73.3 92.9,73.3 94.4,68.4 			"/>
		</g>
		<g>
			<path class="st3" d="M96.5,73.3v1.6c0,0.8-0.7,1.5-1.5,1.5h-3l0.9-3.1H96.5z"/>
		</g>
	</g>
	<g>
		<line class="st4" x1="69.8" y1="74.5" x2="69.7" y2="74.5"/>
	</g>
	<g>
		<path class="st4" d="M96.5,66.8v8c0,0.8-0.7,1.5-1.5,1.5H46.7c-0.1,0-0.1,0-0.2,0c-0.7-0.1-1.3-0.7-1.3-1.5v-8
			c0-0.8,0.7-1.5,1.5-1.5H95c0.1,0,0.1,0,0.2,0C96,65.5,96.5,66.1,96.5,66.8z"/>
	</g>
	<g class="st5">
		<path class="st1" d="M57.4,75.3h-1v-4.8h1V75.3z"/>
		<path class="st1" d="M60.9,75.3h-1.2L58,70.5h1l1,3.1c0.1,0.2,0.2,0.5,0.2,0.8c0.1-0.3,0.2-0.6,0.2-0.9l1-3h1L60.9,75.3z"/>
		<path class="st1" d="M67.6,75.3h-1.1l-0.4-1.1h-2l-0.4,1.1h-1l1.9-4.8h1.1L67.6,75.3z M65.9,73.4l-0.6-1.7c0,0,0-0.1-0.1-0.3
			c0,0.1,0,0.1-0.1,0.2c0,0.1,0,0.1,0,0.2l-0.6,1.6C64.5,73.4,65.9,73.4,65.9,73.4z"/>
		<path class="st1" d="M72.3,75.3h-1.2l-1.6-2.9c-0.1-0.2-0.2-0.5-0.4-0.9c0.1,0.5,0.1,0.9,0.1,1.2v2.5h-0.9v-4.8h1.2l1.6,2.9
			c0.1,0.1,0.1,0.2,0.1,0.2s0,0.1,0.1,0.3c0,0.1,0.1,0.3,0.2,0.4c-0.1-0.3-0.1-0.7-0.1-1.2v-2.6h0.9L72.3,75.3L72.3,75.3z"/>
		<path class="st1" d="M77.9,72.9c0,0.5-0.1,0.9-0.3,1.3s-0.5,0.7-0.8,0.9s-0.8,0.3-1.3,0.3s-0.9-0.1-1.3-0.3s-0.6-0.5-0.8-0.9
			c-0.2-0.4-0.3-0.8-0.3-1.3s0.1-0.9,0.3-1.3c0.2-0.4,0.5-0.7,0.8-0.9c0.4-0.2,0.8-0.3,1.3-0.3c0.4,0,0.7,0.1,1,0.2s0.5,0.3,0.7,0.5
			s0.3,0.5,0.4,0.8C77.9,72.2,77.9,72.5,77.9,72.9z M76.9,72.9c0-0.2,0-0.4-0.1-0.6s-0.1-0.4-0.2-0.6s-0.3-0.3-0.4-0.4
			c-0.2-0.1-0.4-0.2-0.6-0.2c-0.3,0-0.5,0.1-0.7,0.3s-0.3,0.4-0.4,0.7c-0.1,0.3-0.1,0.6-0.1,0.8c0,0.3,0,0.6,0.1,0.8
			c0.1,0.3,0.2,0.5,0.4,0.7s0.5,0.3,0.7,0.3s0.4-0.1,0.6-0.2s0.3-0.2,0.4-0.4c0.1-0.2,0.2-0.4,0.2-0.6
			C76.9,73.3,76.9,73.1,76.9,72.9z"/>
		<path class="st1" d="M81.3,75.3h-1.2l-1.7-4.8h1l1,3.1c0.1,0.2,0.2,0.5,0.2,0.8c0.1-0.3,0.2-0.6,0.2-0.9l1-3h1L81.3,75.3z"/>
	</g>
	<g class="st5">
		<path class="st6" d="M57.4,75.3h-1v-4.8h1V75.3z"/>
		<path class="st6" d="M60.9,75.3h-1.2L58,70.5h1l1,3.1c0.1,0.2,0.2,0.5,0.2,0.8c0.1-0.3,0.2-0.6,0.2-0.9l1-3h1L60.9,75.3z"/>
		<path class="st6" d="M67.6,75.3h-1.1l-0.4-1.1h-2l-0.4,1.1h-1l1.9-4.8h1.1L67.6,75.3z M65.9,73.4l-0.6-1.7c0,0,0-0.1-0.1-0.3
			c0,0.1,0,0.1-0.1,0.2c0,0.1,0,0.1,0,0.2l-0.6,1.6C64.5,73.4,65.9,73.4,65.9,73.4z"/>
		<path class="st6" d="M72.3,75.3h-1.2l-1.6-2.9c-0.1-0.2-0.2-0.5-0.4-0.9c0.1,0.5,0.1,0.9,0.1,1.2v2.5h-0.9v-4.8h1.2l1.6,2.9
			c0.1,0.1,0.1,0.2,0.1,0.2s0,0.1,0.1,0.3c0,0.1,0.1,0.3,0.2,0.4c-0.1-0.3-0.1-0.7-0.1-1.2v-2.6h0.9L72.3,75.3L72.3,75.3z"/>
		<path class="st6" d="M77.9,72.9c0,0.5-0.1,0.9-0.3,1.3s-0.5,0.7-0.8,0.9s-0.8,0.3-1.3,0.3s-0.9-0.1-1.3-0.3s-0.6-0.5-0.8-0.9
			c-0.2-0.4-0.3-0.8-0.3-1.3s0.1-0.9,0.3-1.3c0.2-0.4,0.5-0.7,0.8-0.9c0.4-0.2,0.8-0.3,1.3-0.3c0.4,0,0.7,0.1,1,0.2s0.5,0.3,0.7,0.5
			s0.3,0.5,0.4,0.8C77.9,72.2,77.9,72.5,77.9,72.9z M76.9,72.9c0-0.2,0-0.4-0.1-0.6s-0.1-0.4-0.2-0.6s-0.3-0.3-0.4-0.4
			c-0.2-0.1-0.4-0.2-0.6-0.2c-0.3,0-0.5,0.1-0.7,0.3s-0.3,0.4-0.4,0.7c-0.1,0.3-0.1,0.6-0.1,0.8c0,0.3,0,0.6,0.1,0.8
			c0.1,0.3,0.2,0.5,0.4,0.7s0.5,0.3,0.7,0.3s0.4-0.1,0.6-0.2s0.3-0.2,0.4-0.4c0.1-0.2,0.2-0.4,0.2-0.6
			C76.9,73.3,76.9,73.1,76.9,72.9z"/>
		<path class="st6" d="M81.3,75.3h-1.2l-1.7-4.8h1l1,3.1c0.1,0.2,0.2,0.5,0.2,0.8c0.1-0.3,0.2-0.6,0.2-0.9l1-3h1L81.3,75.3z"/>
	</g>
	<g class="st5">
		<path class="st1" d="M58.4,69.2h-0.6l-0.2-0.6h-1l-0.2,0.6h-0.5l0.9-2.5h0.6L58.4,69.2z M57.4,68.2l-0.3-0.9c0,0,0-0.1,0-0.2v0.1
			v0.1l-0.3,0.8L57.4,68.2z"/>
		<path class="st1" d="M60.2,68.7v0.4h-1.5v-2.5h0.5v2.1H60.2z"/>
		<path class="st1" d="M62,68.7v0.4h-1.5v-2.5H62V67h-1v0.6h0.9V68H61v0.7H62z"/>
		<path class="st1" d="M64.6,69.1H64l-0.6-1l-0.6,1h-0.6l0.8-1.3l-0.8-1.2h0.6l0.5,0.9l0.5-0.9h0.5l-0.7,1.2L64.6,69.1z"/>
		<path class="st1" d="M67.2,69.1h-0.6l-0.2-0.6h-1l-0.2,0.6h-0.5l0.9-2.5h0.6L67.2,69.1z M66.3,68.1L66,67.2c0,0,0-0.1,0-0.2v0.1
			v0.1L65.7,68L66.3,68.1z"/>
		<path class="st1" d="M69.6,69H69l-0.8-1.5c-0.1-0.1-0.1-0.2-0.2-0.4c0,0.3,0.1,0.5,0.1,0.6V69h-0.5v-2.5h0.6L69,68
			c0,0.1,0,0.1,0.1,0.1c0,0,0,0.1,0.1,0.1s0.1,0.1,0.1,0.2c0-0.2,0-0.4-0.1-0.6v-1.3h0.5L69.6,69z"/>
		<path class="st1" d="M70.2,69v-2.5h0.6c0.2,0,0.3,0,0.4,0s0.2,0,0.4,0.1s0.2,0.1,0.3,0.2c0.1,0.1,0.2,0.1,0.2,0.2
			c0.1,0.1,0.1,0.2,0.1,0.2c0,0.1,0.1,0.2,0.1,0.3c0,0.1,0,0.2,0,0.3c0,0.2,0,0.4-0.1,0.6s-0.2,0.3-0.3,0.4
			c-0.1,0.1-0.2,0.1-0.3,0.1c-0.1,0-0.2,0.1-0.3,0.1s-0.2,0-0.3,0L70.2,69z M70.7,68.6C70.8,68.6,70.8,68.6,70.7,68.6
			C70.8,68.6,70.8,68.6,70.7,68.6c0.2,0,0.4,0,0.5-0.1c0.1,0,0.2-0.1,0.3-0.2c0.1-0.1,0.1-0.2,0.2-0.3c0-0.1,0.1-0.2,0.1-0.4
			c0-0.1,0-0.3-0.1-0.4s-0.2-0.2-0.3-0.3c0,0-0.1-0.1-0.2-0.1s-0.1,0-0.2,0s-0.1,0-0.2,0s-0.1,0-0.2,0L70.7,68.6z"/>
		<path class="st1" d="M74.3,68.5v0.4h-1.5v-2.5h1.5v0.4h-1v0.6h0.9v0.4h-0.9v0.7H74.3z"/>
		<path class="st1" d="M75.4,68.9h-0.5v-2.5h0.8c0.2,0,0.3,0,0.5,0c0.1,0,0.2,0.1,0.3,0.2c0.1,0.1,0.1,0.2,0.1,0.4
			c0,0.2,0,0.3-0.1,0.4s-0.2,0.2-0.4,0.2c0.1,0,0.1,0.1,0.2,0.1c0,0.1,0.1,0.1,0.1,0.2l0.4,0.9h-0.6l-0.3-0.7c0-0.1-0.1-0.2-0.1-0.2
			s-0.1-0.1-0.2-0.1s-0.1,0-0.3,0L75.4,68.9z M75.3,67.5h0.2c0.1,0,0.2,0,0.3-0.1c0.1-0.1,0.1-0.1,0.1-0.3c0-0.2-0.1-0.3-0.4-0.3
			h-0.3L75.3,67.5z"/>
	</g>
	<g>
		<path class="st4" d="M96.5,66.8v8c0,0.8-0.7,1.5-1.5,1.5H46.7c-0.1,0-0.1,0-0.2,0c-0.7-0.1-1.3-0.7-1.3-1.5v-8
			c0-0.8,0.7-1.5,1.5-1.5H95c0.1,0,0.1,0,0.2,0C96,65.5,96.5,66.1,96.5,66.8z"/>
	</g>
</g>
<g>
	<g>
		<line class="st7" x1="45.2" y1="80.5" x2="45.2" y2="87.3"/>
		<line class="st8" x1="96.5" y1="80.5" x2="96.5" y2="87.3"/>
		<line class="st9" x1="45.2" y1="83.9" x2="96.5" y2="83.9"/>
	</g>
	<text transform="matrix(1 0 0 1 66.6465 82.7781)" class="st10 st11 st12">70mm</text>
</g>
<g>
	<g>
		<line class="st13" x1="102.8" y1="65.5" x2="102.8" y2="76.5"/>
		<line class="st8" x1="106.2" y1="76.5" x2="99.4" y2="76.5"/>
		<line class="st8" x1="106.2" y1="65.5" x2="99.4" y2="65.5"/>
	</g>
	<text transform="matrix(0 -1 1 0 101.2449 75.2352)" class="st10 st11 st12">15mm</text>
</g>
<text transform="matrix(1 0 0 1 58.0661 61.9191)" class="st10 st11 st14">Ваше Имя и Фамилия</text>
<polyline class="st15" points="56.9,65.4 56.9,62.6 86.9,62.6 "/>
</svg>
