<?xml version="1.0" encoding="utf-8"?>
<!-- Generator: Adobe Illustrator 26.0.1, SVG Export Plug-In . SVG Version: 6.00 Build 0)  -->
<svg version="1.1" id="Слой_1" xmlns="http://www.w3.org/2000/svg" xmlns:xlink="http://www.w3.org/1999/xlink" x="0px" y="0px"
	 viewBox="0 0 141.7 141.7" style="enable-background:new 0 0 141.7 141.7;" xml:space="preserve">
<style type="text/css">
	.st0{fill:#1D1E1C;}
	.st1{fill:#FFFFFF;}
	.st2{fill:#2D57A3;}
	.st3{fill:#E73B31;}
	.st4{fill:none;}
	.st5{enable-background:new    ;}
	.st6{fill:none;stroke:#FFFFFF;stroke-width:0.2253;stroke-miterlimit:10;}
</style>
<image style="overflow:visible;" width="591" height="591" xlink:href="1F50DCE9.jpg"  transform="matrix(0.24 0 0 0.24 0 -0.11)">
</image>
<g>
	<g>
		<g>
			<g>
				<path class="st0" d="M68.5,39.6l-0.9,3l-1.4,4.9l-0.9,3.1H19.9c-0.1,0-0.1,0-0.2,0l0.9-3l1.4-4.9l0.9-3h45.3
					C68.3,39.6,68.4,39.6,68.5,39.6z"/>
			</g>
			<g>
				<path class="st1" d="M22.9,39.6l-0.9,3h-3.6v-1.5c0-0.8,0.7-1.5,1.5-1.5H22.9z"/>
			</g>
			<g>
				<polygon class="st2" points="22.1,42.6 20.6,47.5 18.5,47.5 18.5,42.6 				"/>
			</g>
			<g>
				<path class="st3" d="M20.6,47.5l-0.9,3c-0.7-0.1-1.3-0.7-1.3-1.5v-1.6H20.6z"/>
			</g>
			<g>
				<path class="st1" d="M69.7,41.1v1.5h-2.2l0.9-3C69.2,39.7,69.7,40.3,69.7,41.1z"/>
			</g>
			<g>
				<polygon class="st2" points="69.7,42.6 69.7,47.5 66.2,47.5 67.6,42.6 				"/>
			</g>
			<g>
				<path class="st3" d="M69.7,47.5v1.6c0,0.8-0.7,1.5-1.5,1.5h-3l0.9-3.1C66.2,47.5,69.7,47.5,69.7,47.5z"/>
			</g>
		</g>
		<g>
			<line class="st4" x1="43.1" y1="48.7" x2="43" y2="48.7"/>
		</g>
		<g>
			<path class="st4" d="M69.7,41.1v8c0,0.8-0.7,1.5-1.5,1.5H19.9c-0.1,0-0.1,0-0.2,0c-0.7-0.1-1.3-0.7-1.3-1.5v-8
				c0-0.8,0.7-1.5,1.5-1.5h48.3c0.1,0,0.1,0,0.2,0C69.2,39.7,69.7,40.3,69.7,41.1z"/>
		</g>
		<g class="st5">
			<path class="st1" d="M30.6,49.5h-1v-4.8h1V49.5z"/>
			<path class="st1" d="M34.2,49.5H33l-1.7-4.8h1l1,3.1c0.1,0.2,0.2,0.5,0.2,0.8c0.1-0.3,0.2-0.6,0.2-0.9l1-3h1L34.2,49.5z"/>
			<path class="st1" d="M40.9,49.5h-1.1l-0.4-1.1h-2L37,49.5h-1l1.9-4.8h1.1L40.9,49.5z M39.1,47.6l-0.6-1.7c0,0,0-0.1-0.1-0.3
				c0,0.1,0,0.1-0.1,0.2c0,0.1,0,0.1,0,0.2l-0.6,1.6H39.1z"/>
			<path class="st1" d="M45.5,49.5h-1.2l-1.6-2.9c-0.1-0.2-0.2-0.5-0.4-0.9c0.1,0.5,0.1,0.9,0.1,1.2v2.5h-0.9v-4.8h1.2l1.6,2.9
				c0.1,0.1,0.1,0.2,0.1,0.2c0,0,0,0.1,0.1,0.3c0,0.1,0.1,0.3,0.2,0.4c-0.1-0.3-0.1-0.7-0.1-1.2v-2.6h0.9L45.5,49.5L45.5,49.5z"/>
			<path class="st1" d="M51.2,47.1c0,0.5-0.1,0.9-0.3,1.3s-0.5,0.7-0.8,0.9c-0.4,0.2-0.8,0.3-1.3,0.3c-0.5,0-0.9-0.1-1.3-0.3
				c-0.4-0.2-0.6-0.5-0.8-0.9c-0.2-0.4-0.3-0.8-0.3-1.3s0.1-0.9,0.3-1.3c0.2-0.4,0.5-0.7,0.8-0.9c0.4-0.2,0.8-0.3,1.3-0.3
				c0.4,0,0.7,0.1,1,0.2c0.3,0.1,0.5,0.3,0.7,0.5c0.2,0.2,0.3,0.5,0.4,0.8C51.1,46.4,51.2,46.7,51.2,47.1z M50.1,47.1
				c0-0.2,0-0.4-0.1-0.6c-0.1-0.2-0.1-0.4-0.2-0.6c-0.1-0.2-0.3-0.3-0.4-0.4c-0.2-0.1-0.4-0.2-0.6-0.2c-0.3,0-0.5,0.1-0.7,0.3
				c-0.2,0.2-0.3,0.4-0.4,0.7c-0.1,0.3-0.1,0.6-0.1,0.8s0,0.6,0.1,0.8c0.1,0.3,0.2,0.5,0.4,0.7c0.2,0.2,0.5,0.3,0.7,0.3
				c0.2,0,0.4-0.1,0.6-0.2c0.2-0.1,0.3-0.2,0.4-0.4c0.1-0.2,0.2-0.4,0.2-0.6C50.1,47.5,50.1,47.3,50.1,47.1z"/>
			<path class="st1" d="M54.5,49.5h-1.2l-1.7-4.8h1l1,3.1c0.1,0.2,0.2,0.5,0.2,0.8c0.1-0.3,0.2-0.6,0.2-0.9l1-3h1L54.5,49.5z"/>
		</g>
		<g class="st5">
			<path class="st6" d="M30.6,49.5h-1v-4.8h1V49.5z"/>
			<path class="st6" d="M34.2,49.5H33l-1.7-4.8h1l1,3.1c0.1,0.2,0.2,0.5,0.2,0.8c0.1-0.3,0.2-0.6,0.2-0.9l1-3h1L34.2,49.5z"/>
			<path class="st6" d="M40.9,49.5h-1.1l-0.4-1.1h-2L37,49.5h-1l1.9-4.8h1.1L40.9,49.5z M39.1,47.6l-0.6-1.7c0,0,0-0.1-0.1-0.3
				c0,0.1,0,0.1-0.1,0.2c0,0.1,0,0.1,0,0.2l-0.6,1.6H39.1z"/>
			<path class="st6" d="M45.5,49.5h-1.2l-1.6-2.9c-0.1-0.2-0.2-0.5-0.4-0.9c0.1,0.5,0.1,0.9,0.1,1.2v2.5h-0.9v-4.8h1.2l1.6,2.9
				c0.1,0.1,0.1,0.2,0.1,0.2c0,0,0,0.1,0.1,0.3c0,0.1,0.1,0.3,0.2,0.4c-0.1-0.3-0.1-0.7-0.1-1.2v-2.6h0.9L45.5,49.5L45.5,49.5z"/>
			<path class="st6" d="M51.2,47.1c0,0.5-0.1,0.9-0.3,1.3s-0.5,0.7-0.8,0.9c-0.4,0.2-0.8,0.3-1.3,0.3c-0.5,0-0.9-0.1-1.3-0.3
				c-0.4-0.2-0.6-0.5-0.8-0.9c-0.2-0.4-0.3-0.8-0.3-1.3s0.1-0.9,0.3-1.3c0.2-0.4,0.5-0.7,0.8-0.9c0.4-0.2,0.8-0.3,1.3-0.3
				c0.4,0,0.7,0.1,1,0.2c0.3,0.1,0.5,0.3,0.7,0.5c0.2,0.2,0.3,0.5,0.4,0.8C51.1,46.4,51.2,46.7,51.2,47.1z M50.1,47.1
				c0-0.2,0-0.4-0.1-0.6c-0.1-0.2-0.1-0.4-0.2-0.6c-0.1-0.2-0.3-0.3-0.4-0.4c-0.2-0.1-0.4-0.2-0.6-0.2c-0.3,0-0.5,0.1-0.7,0.3
				c-0.2,0.2-0.3,0.4-0.4,0.7c-0.1,0.3-0.1,0.6-0.1,0.8s0,0.6,0.1,0.8c0.1,0.3,0.2,0.5,0.4,0.7c0.2,0.2,0.5,0.3,0.7,0.3
				c0.2,0,0.4-0.1,0.6-0.2c0.2-0.1,0.3-0.2,0.4-0.4c0.1-0.2,0.2-0.4,0.2-0.6C50.1,47.5,50.1,47.3,50.1,47.1z"/>
			<path class="st6" d="M54.5,49.5h-1.2l-1.7-4.8h1l1,3.1c0.1,0.2,0.2,0.5,0.2,0.8c0.1-0.3,0.2-0.6,0.2-0.9l1-3h1L54.5,49.5z"/>
		</g>
		<g class="st5">
			<path class="st1" d="M31.6,43.4l-0.6,0l-0.2-0.6l-1,0l-0.2,0.6l-0.5,0l0.9-2.5l0.6,0L31.6,43.4z M30.7,42.4l-0.3-0.9
				c0,0,0-0.1,0-0.2c0,0,0,0.1,0,0.1c0,0,0,0.1,0,0.1l-0.3,0.8L30.7,42.4z"/>
			<path class="st1" d="M33.4,42.9l0,0.4l-1.5,0l0-2.5l0.5,0l0,2.1L33.4,42.9z"/>
			<path class="st1" d="M35.3,42.9l0,0.4l-1.5,0l0-2.5l1.5,0l0,0.4l-1,0l0,0.6l0.9,0l0,0.4l-0.9,0l0,0.7L35.3,42.9z"/>
			<path class="st1" d="M37.9,43.3l-0.6,0l-0.6-1l-0.6,1l-0.6,0l0.8-1.3l-0.8-1.2l0.6,0l0.5,0.9l0.5-0.9l0.5,0L37,42L37.9,43.3z"/>
			<path class="st1" d="M40.5,43.3l-0.6,0l-0.2-0.6l-1,0l-0.2,0.6l-0.5,0l0.9-2.5l0.6,0L40.5,43.3z M39.5,42.3l-0.3-0.9
				c0,0,0-0.1,0-0.2c0,0,0,0.1,0,0.1c0,0,0,0.1,0,0.1l-0.3,0.8L39.5,42.3z"/>
			<path class="st1" d="M42.9,43.2l-0.6,0l-0.8-1.5c-0.1-0.1-0.1-0.2-0.2-0.4c0,0.3,0.1,0.5,0.1,0.6l0,1.3l-0.5,0l0-2.5l0.6,0
				l0.9,1.5c0,0.1,0,0.1,0.1,0.1s0,0.1,0.1,0.1c0,0.1,0.1,0.1,0.1,0.2c0-0.2,0-0.4-0.1-0.6l0-1.3l0.5,0L42.9,43.2z"/>
			<path class="st1" d="M43.5,43.2l0-2.5l0.6,0c0.2,0,0.3,0,0.4,0s0.2,0,0.4,0.1s0.2,0.1,0.3,0.2c0.1,0.1,0.2,0.1,0.2,0.2
				c0.1,0.1,0.1,0.2,0.1,0.2c0,0.1,0.1,0.2,0.1,0.3c0,0.1,0,0.2,0,0.3c0,0.2,0,0.4-0.1,0.6c-0.1,0.2-0.2,0.3-0.3,0.4
				c-0.1,0.1-0.2,0.1-0.3,0.1c-0.1,0-0.2,0.1-0.3,0.1s-0.2,0-0.3,0L43.5,43.2z M44,42.8C44,42.8,44,42.8,44,42.8c0.1,0,0.1,0,0.1,0
				c0.1,0,0.3,0,0.4-0.1c0.1,0,0.2-0.1,0.3-0.2s0.1-0.2,0.2-0.3c0-0.1,0.1-0.2,0.1-0.4c0-0.1,0-0.3-0.1-0.4s-0.2-0.2-0.3-0.3
				c0,0-0.1-0.1-0.2-0.1c-0.1,0-0.1,0-0.2,0c-0.1,0-0.1,0-0.2,0c-0.1,0-0.1,0-0.2,0L44,42.8z"/>
			<path class="st1" d="M47.6,42.8l0,0.4l-1.5,0l0-2.5l1.5,0l0,0.4l-1,0l0,0.6l0.9,0l0,0.4l-0.9,0l0,0.7L47.6,42.8z"/>
			<path class="st1" d="M48.6,43.1l-0.5,0l0-2.5l0.8,0c0.2,0,0.3,0,0.5,0c0.1,0,0.2,0.1,0.3,0.2c0.1,0.1,0.1,0.2,0.1,0.4
				c0,0.2,0,0.3-0.1,0.4s-0.2,0.2-0.4,0.2c0.1,0,0.1,0.1,0.2,0.1c0,0.1,0.1,0.1,0.1,0.2l0.4,0.9l-0.6,0l-0.3-0.7
				c0-0.1-0.1-0.2-0.1-0.2c0,0-0.1-0.1-0.2-0.1c-0.1,0-0.1,0-0.3,0L48.6,43.1z M48.6,41.7l0.2,0c0.1,0,0.2,0,0.3-0.1
				c0.1-0.1,0.1-0.1,0.1-0.3c0-0.2-0.1-0.3-0.4-0.3l-0.3,0L48.6,41.7z"/>
		</g>
		<g>
			<path class="st4" d="M69.7,41.1v8c0,0.8-0.7,1.5-1.5,1.5H19.9c-0.1,0-0.1,0-0.2,0c-0.7-0.1-1.3-0.7-1.3-1.5v-8
				c0-0.8,0.7-1.5,1.5-1.5h48.3c0.1,0,0.1,0,0.2,0C69.2,39.7,69.7,40.3,69.7,41.1z"/>
		</g>
	</g>
	<g>
		<g>
			<g>
				<path class="st0" d="M68.5,65.9l-0.9,3l-1.4,4.9l-0.9,3.1H19.9c-0.1,0-0.1,0-0.2,0l0.9-3l1.4-4.9l0.9-3h45.3
					C68.3,65.9,68.4,65.9,68.5,65.9z"/>
			</g>
			<g>
				<path class="st1" d="M22.9,65.9l-0.9,3h-3.6v-1.5c0-0.8,0.7-1.5,1.5-1.5C19.9,65.9,22.9,65.9,22.9,65.9z"/>
			</g>
			<g>
				<polygon class="st2" points="22.1,68.9 20.6,73.8 18.5,73.8 18.5,68.9 				"/>
			</g>
			<g>
				<path class="st3" d="M20.6,73.8l-0.9,3c-0.7-0.1-1.3-0.7-1.3-1.5v-1.6H20.6z"/>
			</g>
			<g>
				<path class="st1" d="M69.7,67.4v1.5h-2.2l0.9-3C69.2,66,69.7,66.6,69.7,67.4z"/>
			</g>
			<g>
				<polygon class="st2" points="69.7,68.9 69.7,73.8 66.2,73.8 67.6,68.9 				"/>
			</g>
			<g>
				<path class="st3" d="M69.7,73.8v1.6c0,0.8-0.7,1.5-1.5,1.5h-3l0.9-3.1H69.7z"/>
			</g>
		</g>
		<g>
			<line class="st4" x1="43.1" y1="75" x2="43" y2="75"/>
		</g>
		<g>
			<path class="st4" d="M69.7,67.4v8c0,0.8-0.7,1.5-1.5,1.5H19.9c-0.1,0-0.1,0-0.2,0c-0.7-0.1-1.3-0.7-1.3-1.5v-8
				c0-0.8,0.7-1.5,1.5-1.5h48.3c0.1,0,0.1,0,0.2,0C69.2,66,69.7,66.6,69.7,67.4z"/>
		</g>
		<g class="st5">
			<path class="st1" d="M30.6,75.8h-1v-4.8h1V75.8z"/>
			<path class="st1" d="M34.2,75.8H33L31.3,71h1l1,3.1c0.1,0.2,0.2,0.5,0.2,0.8c0.1-0.3,0.2-0.6,0.2-0.9l1-3h1L34.2,75.8z"/>
			<path class="st1" d="M40.9,75.8h-1.1l-0.4-1.1h-2L37,75.8h-1l1.9-4.8h1.1L40.9,75.8z M39.1,73.9l-0.6-1.7c0,0,0-0.1-0.1-0.3
				c0,0.1,0,0.1-0.1,0.2c0,0.1,0,0.1,0,0.2l-0.6,1.6H39.1z"/>
			<path class="st1" d="M45.5,75.8h-1.2l-1.6-2.9c-0.1-0.2-0.2-0.5-0.4-0.9c0.1,0.5,0.1,0.9,0.1,1.2v2.5h-0.9v-4.8h1.2l1.6,2.9
				c0.1,0.1,0.1,0.2,0.1,0.2s0,0.1,0.1,0.3c0,0.1,0.1,0.3,0.2,0.4c-0.1-0.3-0.1-0.7-0.1-1.2v-2.6h0.9L45.5,75.8L45.5,75.8z"/>
			<path class="st1" d="M51.2,73.4c0,0.5-0.1,0.9-0.3,1.3s-0.5,0.7-0.8,0.9c-0.4,0.2-0.8,0.3-1.3,0.3c-0.5,0-0.9-0.1-1.3-0.3
				c-0.4-0.2-0.6-0.5-0.8-0.9c-0.2-0.4-0.3-0.8-0.3-1.3c0-0.5,0.1-0.9,0.3-1.3c0.2-0.4,0.5-0.7,0.8-0.9c0.4-0.2,0.8-0.3,1.3-0.3
				c0.4,0,0.7,0.1,1,0.2c0.3,0.1,0.5,0.3,0.7,0.5c0.2,0.2,0.3,0.5,0.4,0.8C51.1,72.7,51.2,73,51.2,73.4z M50.1,73.4
				c0-0.2,0-0.4-0.1-0.6c-0.1-0.2-0.1-0.4-0.2-0.6c-0.1-0.2-0.3-0.3-0.4-0.4c-0.2-0.1-0.4-0.2-0.6-0.2c-0.3,0-0.5,0.1-0.7,0.3
				c-0.2,0.2-0.3,0.4-0.4,0.7c-0.1,0.3-0.1,0.6-0.1,0.8s0,0.6,0.1,0.8c0.1,0.3,0.2,0.5,0.4,0.7c0.2,0.2,0.5,0.3,0.7,0.3
				c0.2,0,0.4-0.1,0.6-0.2c0.2-0.1,0.3-0.2,0.4-0.4c0.1-0.2,0.2-0.4,0.2-0.6C50.1,73.8,50.1,73.6,50.1,73.4z"/>
			<path class="st1" d="M54.5,75.8h-1.2L51.6,71h1l1,3.1c0.1,0.2,0.2,0.5,0.2,0.8c0.1-0.3,0.2-0.6,0.2-0.9l1-3h1L54.5,75.8z"/>
		</g>
		<g class="st5">
			<path class="st6" d="M30.6,75.8h-1v-4.8h1V75.8z"/>
			<path class="st6" d="M34.2,75.8H33L31.3,71h1l1,3.1c0.1,0.2,0.2,0.5,0.2,0.8c0.1-0.3,0.2-0.6,0.2-0.9l1-3h1L34.2,75.8z"/>
			<path class="st6" d="M40.9,75.8h-1.1l-0.4-1.1h-2L37,75.8h-1l1.9-4.8h1.1L40.9,75.8z M39.1,73.9l-0.6-1.7c0,0,0-0.1-0.1-0.3
				c0,0.1,0,0.1-0.1,0.2c0,0.1,0,0.1,0,0.2l-0.6,1.6H39.1z"/>
			<path class="st6" d="M45.5,75.8h-1.2l-1.6-2.9c-0.1-0.2-0.2-0.5-0.4-0.9c0.1,0.5,0.1,0.9,0.1,1.2v2.5h-0.9v-4.8h1.2l1.6,2.9
				c0.1,0.1,0.1,0.2,0.1,0.2s0,0.1,0.1,0.3c0,0.1,0.1,0.3,0.2,0.4c-0.1-0.3-0.1-0.7-0.1-1.2v-2.6h0.9L45.5,75.8L45.5,75.8z"/>
			<path class="st6" d="M51.2,73.4c0,0.5-0.1,0.9-0.3,1.3s-0.5,0.7-0.8,0.9c-0.4,0.2-0.8,0.3-1.3,0.3c-0.5,0-0.9-0.1-1.3-0.3
				c-0.4-0.2-0.6-0.5-0.8-0.9c-0.2-0.4-0.3-0.8-0.3-1.3c0-0.5,0.1-0.9,0.3-1.3c0.2-0.4,0.5-0.7,0.8-0.9c0.4-0.2,0.8-0.3,1.3-0.3
				c0.4,0,0.7,0.1,1,0.2c0.3,0.1,0.5,0.3,0.7,0.5c0.2,0.2,0.3,0.5,0.4,0.8C51.1,72.7,51.2,73,51.2,73.4z M50.1,73.4
				c0-0.2,0-0.4-0.1-0.6c-0.1-0.2-0.1-0.4-0.2-0.6c-0.1-0.2-0.3-0.3-0.4-0.4c-0.2-0.1-0.4-0.2-0.6-0.2c-0.3,0-0.5,0.1-0.7,0.3
				c-0.2,0.2-0.3,0.4-0.4,0.7c-0.1,0.3-0.1,0.6-0.1,0.8s0,0.6,0.1,0.8c0.1,0.3,0.2,0.5,0.4,0.7c0.2,0.2,0.5,0.3,0.7,0.3
				c0.2,0,0.4-0.1,0.6-0.2c0.2-0.1,0.3-0.2,0.4-0.4c0.1-0.2,0.2-0.4,0.2-0.6C50.1,73.8,50.1,73.6,50.1,73.4z"/>
			<path class="st6" d="M54.5,75.8h-1.2L51.6,71h1l1,3.1c0.1,0.2,0.2,0.5,0.2,0.8c0.1-0.3,0.2-0.6,0.2-0.9l1-3h1L54.5,75.8z"/>
		</g>
		<g class="st5">
			<path class="st1" d="M31.6,69.7l-0.6,0l-0.2-0.6l-1,0l-0.2,0.6l-0.5,0l0.9-2.5l0.6,0L31.6,69.7z M30.7,68.7l-0.3-0.9
				c0,0,0-0.1,0-0.2c0,0,0,0.1,0,0.1c0,0,0,0.1,0,0.1l-0.3,0.8L30.7,68.7z"/>
			<path class="st1" d="M33.4,69.3l0,0.4l-1.5,0l0-2.5l0.5,0l0,2.1L33.4,69.3z"/>
			<path class="st1" d="M35.3,69.2l0,0.4l-1.5,0l0-2.5l1.5,0l0,0.4l-1,0l0,0.6l0.9,0l0,0.4l-0.9,0l0,0.7L35.3,69.2z"/>
			<path class="st1" d="M37.9,69.6l-0.6,0l-0.6-1l-0.6,1l-0.6,0l0.8-1.3l-0.8-1.2l0.6,0l0.5,0.9l0.5-0.9l0.5,0L37,68.3L37.9,69.6z"
				/>
			<path class="st1" d="M40.5,69.6l-0.6,0L39.7,69l-1,0l-0.2,0.6l-0.5,0l0.9-2.5l0.6,0L40.5,69.6z M39.5,68.6l-0.3-0.9
				c0,0,0-0.1,0-0.2c0,0,0,0.1,0,0.1c0,0,0,0.1,0,0.1l-0.3,0.8L39.5,68.6z"/>
			<path class="st1" d="M42.9,69.5l-0.6,0L41.4,68c-0.1-0.1-0.1-0.2-0.2-0.4c0,0.3,0.1,0.5,0.1,0.6l0,1.3l-0.5,0l0-2.5l0.6,0
				l0.9,1.5c0,0.1,0,0.1,0.1,0.1c0,0,0,0.1,0.1,0.1c0,0.1,0.1,0.1,0.1,0.2c0-0.2,0-0.4-0.1-0.6l0-1.3l0.5,0L42.9,69.5z"/>
			<path class="st1" d="M43.5,69.5l0-2.5l0.6,0c0.2,0,0.3,0,0.4,0s0.2,0,0.4,0.1s0.2,0.1,0.3,0.2c0.1,0.1,0.2,0.1,0.2,0.2
				c0.1,0.1,0.1,0.2,0.1,0.2c0,0.1,0.1,0.2,0.1,0.3c0,0.1,0,0.2,0,0.3c0,0.2,0,0.4-0.1,0.6s-0.2,0.3-0.3,0.4
				c-0.1,0.1-0.2,0.1-0.3,0.1s-0.2,0.1-0.3,0.1c-0.1,0-0.2,0-0.3,0L43.5,69.5z M44,69.1C44,69.1,44,69.1,44,69.1c0.1,0,0.1,0,0.1,0
				c0.1,0,0.3,0,0.4-0.1c0.1,0,0.2-0.1,0.3-0.2c0.1-0.1,0.1-0.2,0.2-0.3c0-0.1,0.1-0.2,0.1-0.4c0-0.1,0-0.3-0.1-0.4
				s-0.2-0.2-0.3-0.3c0,0-0.1-0.1-0.2-0.1c-0.1,0-0.1,0-0.2,0c-0.1,0-0.1,0-0.2,0c-0.1,0-0.1,0-0.2,0L44,69.1z"/>
			<path class="st1" d="M47.6,69.1l0,0.4l-1.5,0l0-2.5l1.5,0l0,0.4l-1,0l0,0.6l0.9,0l0,0.4l-0.9,0l0,0.7L47.6,69.1z"/>
			<path class="st1" d="M48.6,69.5l-0.5,0l0-2.5l0.8,0c0.2,0,0.3,0,0.5,0c0.1,0,0.2,0.1,0.3,0.2c0.1,0.1,0.1,0.2,0.1,0.4
				c0,0.2,0,0.3-0.1,0.4c-0.1,0.1-0.2,0.2-0.4,0.2c0.1,0,0.1,0.1,0.2,0.1c0,0.1,0.1,0.1,0.1,0.2l0.4,0.9l-0.6,0l-0.3-0.7
				c0-0.1-0.1-0.2-0.1-0.2c0,0-0.1-0.1-0.2-0.1c-0.1,0-0.1,0-0.3,0L48.6,69.5z M48.6,68l0.2,0c0.1,0,0.2,0,0.3-0.1
				c0.1-0.1,0.1-0.1,0.1-0.3c0-0.2-0.1-0.3-0.4-0.3l-0.3,0L48.6,68z"/>
		</g>
		<g>
			<path class="st4" d="M69.7,67.4v8c0,0.8-0.7,1.5-1.5,1.5H19.9c-0.1,0-0.1,0-0.2,0c-0.7-0.1-1.3-0.7-1.3-1.5v-8
				c0-0.8,0.7-1.5,1.5-1.5h48.3c0.1,0,0.1,0,0.2,0C69.2,66,69.7,66.6,69.7,67.4z"/>
		</g>
	</g>
	<g>
		<g>
			<g>
				<path class="st0" d="M68.5,92.2l-0.9,3l-1.4,4.9l-0.9,3.1H19.9c-0.1,0-0.1,0-0.2,0l0.9-3l1.4-4.9l0.9-3h45.3
					C68.3,92.2,68.4,92.2,68.5,92.2z"/>
			</g>
			<g>
				<path class="st1" d="M22.9,92.2l-0.9,3h-3.6v-1.5c0-0.8,0.7-1.5,1.5-1.5H22.9z"/>
			</g>
			<g>
				<polygon class="st2" points="22.1,95.2 20.6,100.1 18.5,100.1 18.5,95.2 				"/>
			</g>
			<g>
				<path class="st3" d="M20.6,100.1l-0.9,3c-0.7-0.1-1.3-0.7-1.3-1.5v-1.6H20.6z"/>
			</g>
			<g>
				<path class="st1" d="M69.7,93.7v1.5h-2.2l0.9-3C69.2,92.3,69.7,92.9,69.7,93.7z"/>
			</g>
			<g>
				<polygon class="st2" points="69.7,95.2 69.7,100.1 66.2,100.1 67.6,95.2 				"/>
			</g>
			<g>
				<path class="st3" d="M69.7,100.1v1.6c0,0.8-0.7,1.5-1.5,1.5h-3l0.9-3.1H69.7z"/>
			</g>
		</g>
		<g>
			<line class="st4" x1="43.1" y1="101.3" x2="43" y2="101.3"/>
		</g>
		<g>
			<path class="st4" d="M69.7,93.7v8c0,0.8-0.7,1.5-1.5,1.5H19.9c-0.1,0-0.1,0-0.2,0c-0.7-0.1-1.3-0.7-1.3-1.5v-8
				c0-0.8,0.7-1.5,1.5-1.5h48.3c0.1,0,0.1,0,0.2,0C69.2,92.3,69.7,92.9,69.7,93.7z"/>
		</g>
		<g class="st5">
			<path class="st1" d="M30.6,102.1h-1v-4.8h1V102.1z"/>
			<path class="st1" d="M34.2,102.1H33l-1.7-4.8h1l1,3.1c0.1,0.2,0.2,0.5,0.2,0.8c0.1-0.3,0.2-0.6,0.2-0.9l1-3h1L34.2,102.1z"/>
			<path class="st1" d="M40.9,102.1h-1.1l-0.4-1.1h-2l-0.4,1.1h-1l1.9-4.8h1.1L40.9,102.1z M39.1,100.2l-0.6-1.7c0,0,0-0.1-0.1-0.3
				c0,0.1,0,0.1-0.1,0.2s0,0.1,0,0.2l-0.6,1.6H39.1z"/>
			<path class="st1" d="M45.5,102.1h-1.2l-1.6-2.9c-0.1-0.2-0.2-0.5-0.4-0.9c0.1,0.5,0.1,0.9,0.1,1.2v2.5h-0.9v-4.8h1.2l1.6,2.9
				c0.1,0.1,0.1,0.2,0.1,0.2c0,0,0,0.1,0.1,0.3c0,0.1,0.1,0.3,0.2,0.4c-0.1-0.3-0.1-0.7-0.1-1.2v-2.6h0.9L45.5,102.1L45.5,102.1z"/>
			<path class="st1" d="M51.2,99.7c0,0.5-0.1,0.9-0.3,1.3s-0.5,0.7-0.8,0.9c-0.4,0.2-0.8,0.3-1.3,0.3c-0.5,0-0.9-0.1-1.3-0.3
				c-0.4-0.2-0.6-0.5-0.8-0.9c-0.2-0.4-0.3-0.8-0.3-1.3c0-0.5,0.1-0.9,0.3-1.3c0.2-0.4,0.5-0.7,0.8-0.9c0.4-0.2,0.8-0.3,1.3-0.3
				c0.4,0,0.7,0.1,1,0.2c0.3,0.1,0.5,0.3,0.7,0.5c0.2,0.2,0.3,0.5,0.4,0.8C51.1,99,51.2,99.3,51.2,99.7z M50.1,99.7
				c0-0.2,0-0.4-0.1-0.6c-0.1-0.2-0.1-0.4-0.2-0.6c-0.1-0.2-0.3-0.3-0.4-0.4c-0.2-0.1-0.4-0.2-0.6-0.2c-0.3,0-0.5,0.1-0.7,0.3
				c-0.2,0.2-0.3,0.4-0.4,0.7c-0.1,0.3-0.1,0.6-0.1,0.8c0,0.3,0,0.6,0.1,0.8c0.1,0.3,0.2,0.5,0.4,0.7c0.2,0.2,0.5,0.3,0.7,0.3
				c0.2,0,0.4-0.1,0.6-0.2c0.2-0.1,0.3-0.2,0.4-0.4c0.1-0.2,0.2-0.4,0.2-0.6C50.1,100.1,50.1,99.9,50.1,99.7z"/>
			<path class="st1" d="M54.5,102.1h-1.2l-1.7-4.8h1l1,3.1c0.1,0.2,0.2,0.5,0.2,0.8c0.1-0.3,0.2-0.6,0.2-0.9l1-3h1L54.5,102.1z"/>
		</g>
		<g class="st5">
			<path class="st6" d="M30.6,102.1h-1v-4.8h1V102.1z"/>
			<path class="st6" d="M34.2,102.1H33l-1.7-4.8h1l1,3.1c0.1,0.2,0.2,0.5,0.2,0.8c0.1-0.3,0.2-0.6,0.2-0.9l1-3h1L34.2,102.1z"/>
			<path class="st6" d="M40.9,102.1h-1.1l-0.4-1.1h-2l-0.4,1.1h-1l1.9-4.8h1.1L40.9,102.1z M39.1,100.2l-0.6-1.7c0,0,0-0.1-0.1-0.3
				c0,0.1,0,0.1-0.1,0.2s0,0.1,0,0.2l-0.6,1.6H39.1z"/>
			<path class="st6" d="M45.5,102.1h-1.2l-1.6-2.9c-0.1-0.2-0.2-0.5-0.4-0.9c0.1,0.5,0.1,0.9,0.1,1.2v2.5h-0.9v-4.8h1.2l1.6,2.9
				c0.1,0.1,0.1,0.2,0.1,0.2c0,0,0,0.1,0.1,0.3c0,0.1,0.1,0.3,0.2,0.4c-0.1-0.3-0.1-0.7-0.1-1.2v-2.6h0.9L45.5,102.1L45.5,102.1z"/>
			<path class="st6" d="M51.2,99.7c0,0.5-0.1,0.9-0.3,1.3s-0.5,0.7-0.8,0.9c-0.4,0.2-0.8,0.3-1.3,0.3c-0.5,0-0.9-0.1-1.3-0.3
				c-0.4-0.2-0.6-0.5-0.8-0.9c-0.2-0.4-0.3-0.8-0.3-1.3c0-0.5,0.1-0.9,0.3-1.3c0.2-0.4,0.5-0.7,0.8-0.9c0.4-0.2,0.8-0.3,1.3-0.3
				c0.4,0,0.7,0.1,1,0.2c0.3,0.1,0.5,0.3,0.7,0.5c0.2,0.2,0.3,0.5,0.4,0.8C51.1,99,51.2,99.3,51.2,99.7z M50.1,99.7
				c0-0.2,0-0.4-0.1-0.6c-0.1-0.2-0.1-0.4-0.2-0.6c-0.1-0.2-0.3-0.3-0.4-0.4c-0.2-0.1-0.4-0.2-0.6-0.2c-0.3,0-0.5,0.1-0.7,0.3
				c-0.2,0.2-0.3,0.4-0.4,0.7c-0.1,0.3-0.1,0.6-0.1,0.8c0,0.3,0,0.6,0.1,0.8c0.1,0.3,0.2,0.5,0.4,0.7c0.2,0.2,0.5,0.3,0.7,0.3
				c0.2,0,0.4-0.1,0.6-0.2c0.2-0.1,0.3-0.2,0.4-0.4c0.1-0.2,0.2-0.4,0.2-0.6C50.1,100.1,50.1,99.9,50.1,99.7z"/>
			<path class="st6" d="M54.5,102.1h-1.2l-1.7-4.8h1l1,3.1c0.1,0.2,0.2,0.5,0.2,0.8c0.1-0.3,0.2-0.6,0.2-0.9l1-3h1L54.5,102.1z"/>
		</g>
		<g class="st5">
			<path class="st1" d="M31.6,96l-0.6,0l-0.2-0.6l-1,0L29.6,96l-0.5,0l0.9-2.5l0.6,0L31.6,96z M30.7,95l-0.3-0.9c0,0,0-0.1,0-0.2
				c0,0,0,0.1,0,0.1s0,0.1,0,0.1L29.9,95L30.7,95z"/>
			<path class="st1" d="M33.4,95.6l0,0.4l-1.5,0l0-2.5l0.5,0l0,2.1L33.4,95.6z"/>
			<path class="st1" d="M35.3,95.5l0,0.4l-1.5,0l0-2.5l1.5,0l0,0.4l-1,0l0,0.6l0.9,0l0,0.4l-0.9,0l0,0.7L35.3,95.5z"/>
			<path class="st1" d="M37.9,95.9l-0.6,0l-0.6-1l-0.6,1l-0.6,0l0.8-1.3l-0.8-1.2l0.6,0l0.5,0.9l0.5-0.9l0.5,0L37,94.6L37.9,95.9z"
				/>
			<path class="st1" d="M40.5,95.9l-0.6,0l-0.2-0.6l-1,0l-0.2,0.6l-0.5,0l0.9-2.5l0.6,0L40.5,95.9z M39.5,94.9L39.2,94
				c0,0,0-0.1,0-0.2c0,0,0,0.1,0,0.1c0,0,0,0.1,0,0.1l-0.3,0.8L39.5,94.9z"/>
			<path class="st1" d="M42.9,95.9l-0.6,0l-0.8-1.5c-0.1-0.1-0.1-0.2-0.2-0.4c0,0.3,0.1,0.5,0.1,0.6l0,1.3l-0.5,0l0-2.5l0.6,0
				l0.9,1.5c0,0.1,0,0.1,0.1,0.1s0,0.1,0.1,0.1c0,0.1,0.1,0.1,0.1,0.2c0-0.2,0-0.4-0.1-0.6l0-1.3l0.5,0L42.9,95.9z"/>
			<path class="st1" d="M43.5,95.8l0-2.5l0.6,0c0.2,0,0.3,0,0.4,0s0.2,0,0.4,0.1s0.2,0.1,0.3,0.2c0.1,0.1,0.2,0.1,0.2,0.2
				c0.1,0.1,0.1,0.2,0.1,0.2c0,0.1,0.1,0.2,0.1,0.3c0,0.1,0,0.2,0,0.3c0,0.2,0,0.4-0.1,0.6c-0.1,0.2-0.2,0.3-0.3,0.4
				c-0.1,0.1-0.2,0.1-0.3,0.1c-0.1,0-0.2,0.1-0.3,0.1s-0.2,0-0.3,0L43.5,95.8z M44,95.5C44,95.5,44,95.5,44,95.5c0.1,0,0.1,0,0.1,0
				c0.1,0,0.3,0,0.4-0.1c0.1,0,0.2-0.1,0.3-0.2c0.1-0.1,0.1-0.2,0.2-0.3c0-0.1,0.1-0.2,0.1-0.4c0-0.1,0-0.3-0.1-0.4
				s-0.2-0.2-0.3-0.3c0,0-0.1-0.1-0.2-0.1c-0.1,0-0.1,0-0.2,0c-0.1,0-0.1,0-0.2,0c-0.1,0-0.1,0-0.2,0L44,95.5z"/>
			<path class="st1" d="M47.6,95.4l0,0.4l-1.5,0l0-2.5l1.5,0l0,0.4l-1,0l0,0.6l0.9,0l0,0.4l-0.9,0l0,0.7L47.6,95.4z"/>
			<path class="st1" d="M48.6,95.8l-0.5,0l0-2.5l0.8,0c0.2,0,0.3,0,0.5,0c0.1,0,0.2,0.1,0.3,0.2c0.1,0.1,0.1,0.2,0.1,0.4
				c0,0.2,0,0.3-0.1,0.4c-0.1,0.1-0.2,0.2-0.4,0.2c0.1,0,0.1,0.1,0.2,0.1c0,0.1,0.1,0.1,0.1,0.2l0.4,0.9l-0.6,0l-0.3-0.7
				c0-0.1-0.1-0.2-0.1-0.2c0,0-0.1-0.1-0.2-0.1c-0.1,0-0.1,0-0.3,0L48.6,95.8z M48.6,94.4l0.2,0c0.1,0,0.2,0,0.3-0.1
				c0.1-0.1,0.1-0.1,0.1-0.3c0-0.2-0.1-0.3-0.4-0.3l-0.3,0L48.6,94.4z"/>
		</g>
		<g>
			<path class="st4" d="M69.7,93.7v8c0,0.8-0.7,1.5-1.5,1.5H19.9c-0.1,0-0.1,0-0.2,0c-0.7-0.1-1.3-0.7-1.3-1.5v-8
				c0-0.8,0.7-1.5,1.5-1.5h48.3c0.1,0,0.1,0,0.2,0C69.2,92.3,69.7,92.9,69.7,93.7z"/>
		</g>
	</g>
	<g>
		<g>
			<g>
				<path class="st0" d="M121.8,39.5l-0.9,3l-1.4,4.9l-0.9,3.1H73.3c-0.1,0-0.1,0-0.2,0l0.9-3l1.4-4.9l0.9-3h45.3
					C121.7,39.5,121.8,39.5,121.8,39.5z"/>
			</g>
			<g>
				<path class="st1" d="M76.3,39.5l-0.9,3h-3.6V41c0-0.8,0.7-1.5,1.5-1.5H76.3z"/>
			</g>
			<g>
				<polygon class="st2" points="75.4,42.5 74,47.4 71.8,47.4 71.8,42.5 				"/>
			</g>
			<g>
				<path class="st3" d="M74,47.4l-0.9,3c-0.7-0.1-1.3-0.7-1.3-1.5v-1.6H74z"/>
			</g>
			<g>
				<path class="st1" d="M123.1,41v1.5h-2.2l0.9-3C122.5,39.6,123.1,40.2,123.1,41z"/>
			</g>
			<g>
				<polygon class="st2" points="123.1,42.5 123.1,47.4 119.5,47.4 120.9,42.5 				"/>
			</g>
			<g>
				<path class="st3" d="M123.1,47.4V49c0,0.8-0.7,1.5-1.5,1.5h-3l0.9-3.1L123.1,47.4z"/>
			</g>
		</g>
		<g>
			<line class="st4" x1="96.4" y1="48.6" x2="96.3" y2="48.6"/>
		</g>
		<g>
			<path class="st4" d="M123.1,41v8c0,0.8-0.7,1.5-1.5,1.5H73.3c-0.1,0-0.1,0-0.2,0c-0.7-0.1-1.3-0.7-1.3-1.5v-8
				c0-0.8,0.7-1.5,1.5-1.5h48.3c0.1,0,0.1,0,0.2,0C122.5,39.6,123.1,40.2,123.1,41z"/>
		</g>
		<g class="st5">
			<path class="st1" d="M83.9,49.4h-1v-4.8h1V49.4z"/>
			<path class="st1" d="M87.5,49.4h-1.2l-1.7-4.8h1l1,3.1c0.1,0.2,0.2,0.5,0.2,0.8c0.1-0.3,0.2-0.6,0.2-0.9l1-3h1L87.5,49.4z"/>
			<path class="st1" d="M94.2,49.4h-1.1l-0.4-1.1h-2l-0.4,1.1h-1l1.9-4.8h1.1L94.2,49.4z M92.5,47.5l-0.6-1.7c0,0,0-0.1-0.1-0.3
				c0,0.1,0,0.1-0.1,0.2c0,0.1,0,0.1,0,0.2L91,47.5H92.5z"/>
			<path class="st1" d="M98.9,49.4h-1.2l-1.6-2.9c-0.1-0.2-0.2-0.5-0.4-0.9c0.1,0.5,0.1,0.9,0.1,1.2v2.5h-0.9v-4.8H96l1.6,2.9
				c0.1,0.1,0.1,0.2,0.1,0.2c0,0,0,0.1,0.1,0.3c0,0.1,0.1,0.3,0.2,0.4c-0.1-0.3-0.1-0.7-0.1-1.2v-2.6h0.9L98.9,49.4L98.9,49.4z"/>
			<path class="st1" d="M104.5,47c0,0.5-0.1,0.9-0.3,1.3c-0.2,0.4-0.5,0.7-0.8,0.9s-0.8,0.3-1.3,0.3c-0.5,0-0.9-0.1-1.3-0.3
				c-0.4-0.2-0.6-0.5-0.8-0.9c-0.2-0.4-0.3-0.8-0.3-1.3c0-0.5,0.1-0.9,0.3-1.3c0.2-0.4,0.5-0.7,0.8-0.9c0.4-0.2,0.8-0.3,1.3-0.3
				c0.4,0,0.7,0.1,1,0.2c0.3,0.1,0.5,0.3,0.7,0.5c0.2,0.2,0.3,0.5,0.4,0.8C104.5,46.3,104.5,46.6,104.5,47z M103.5,47
				c0-0.2,0-0.4-0.1-0.6c-0.1-0.2-0.1-0.4-0.2-0.6c-0.1-0.2-0.3-0.3-0.4-0.4c-0.2-0.1-0.4-0.2-0.6-0.2c-0.3,0-0.5,0.1-0.7,0.3
				s-0.3,0.4-0.4,0.7s-0.1,0.6-0.1,0.8c0,0.3,0,0.6,0.1,0.8c0.1,0.3,0.2,0.5,0.4,0.7s0.5,0.3,0.7,0.3c0.2,0,0.4-0.1,0.6-0.2
				s0.3-0.2,0.4-0.4c0.1-0.2,0.2-0.4,0.2-0.6C103.5,47.4,103.5,47.2,103.5,47z"/>
			<path class="st1" d="M107.8,49.4h-1.2l-1.7-4.8h1l1,3.1c0.1,0.2,0.2,0.5,0.2,0.8c0.1-0.3,0.2-0.6,0.2-0.9l1-3h1L107.8,49.4z"/>
		</g>
		<g class="st5">
			<path class="st6" d="M83.9,49.4h-1v-4.8h1V49.4z"/>
			<path class="st6" d="M87.5,49.4h-1.2l-1.7-4.8h1l1,3.1c0.1,0.2,0.2,0.5,0.2,0.8c0.1-0.3,0.2-0.6,0.2-0.9l1-3h1L87.5,49.4z"/>
			<path class="st6" d="M94.2,49.4h-1.1l-0.4-1.1h-2l-0.4,1.1h-1l1.9-4.8h1.1L94.2,49.4z M92.5,47.5l-0.6-1.7c0,0,0-0.1-0.1-0.3
				c0,0.1,0,0.1-0.1,0.2c0,0.1,0,0.1,0,0.2L91,47.5H92.5z"/>
			<path class="st6" d="M98.9,49.4h-1.2l-1.6-2.9c-0.1-0.2-0.2-0.5-0.4-0.9c0.1,0.5,0.1,0.9,0.1,1.2v2.5h-0.9v-4.8H96l1.6,2.9
				c0.1,0.1,0.1,0.2,0.1,0.2c0,0,0,0.1,0.1,0.3c0,0.1,0.1,0.3,0.2,0.4c-0.1-0.3-0.1-0.7-0.1-1.2v-2.6h0.9L98.9,49.4L98.9,49.4z"/>
			<path class="st6" d="M104.5,47c0,0.5-0.1,0.9-0.3,1.3c-0.2,0.4-0.5,0.7-0.8,0.9s-0.8,0.3-1.3,0.3c-0.5,0-0.9-0.1-1.3-0.3
				c-0.4-0.2-0.6-0.5-0.8-0.9c-0.2-0.4-0.3-0.8-0.3-1.3c0-0.5,0.1-0.9,0.3-1.3c0.2-0.4,0.5-0.7,0.8-0.9c0.4-0.2,0.8-0.3,1.3-0.3
				c0.4,0,0.7,0.1,1,0.2c0.3,0.1,0.5,0.3,0.7,0.5c0.2,0.2,0.3,0.5,0.4,0.8C104.5,46.3,104.5,46.6,104.5,47z M103.5,47
				c0-0.2,0-0.4-0.1-0.6c-0.1-0.2-0.1-0.4-0.2-0.6c-0.1-0.2-0.3-0.3-0.4-0.4c-0.2-0.1-0.4-0.2-0.6-0.2c-0.3,0-0.5,0.1-0.7,0.3
				s-0.3,0.4-0.4,0.7s-0.1,0.6-0.1,0.8c0,0.3,0,0.6,0.1,0.8c0.1,0.3,0.2,0.5,0.4,0.7s0.5,0.3,0.7,0.3c0.2,0,0.4-0.1,0.6-0.2
				s0.3-0.2,0.4-0.4c0.1-0.2,0.2-0.4,0.2-0.6C103.5,47.4,103.5,47.2,103.5,47z"/>
			<path class="st6" d="M107.8,49.4h-1.2l-1.7-4.8h1l1,3.1c0.1,0.2,0.2,0.5,0.2,0.8c0.1-0.3,0.2-0.6,0.2-0.9l1-3h1L107.8,49.4z"/>
		</g>
		<g class="st5">
			<path class="st1" d="M85,43.3l-0.6,0l-0.2-0.6l-1,0l-0.2,0.6l-0.5,0l0.9-2.5l0.6,0L85,43.3z M84,42.3l-0.3-0.9c0,0,0-0.1,0-0.2
				c0,0,0,0.1,0,0.1s0,0.1,0,0.1l-0.3,0.8L84,42.3z"/>
			<path class="st1" d="M86.8,42.9l0,0.4l-1.5,0l0-2.5l0.5,0l0,2.1L86.8,42.9z"/>
			<path class="st1" d="M88.6,42.8l0,0.4l-1.5,0l0-2.5l1.5,0l0,0.4l-1,0l0,0.6l0.9,0l0,0.4l-0.9,0l0,0.7L88.6,42.8z"/>
			<path class="st1" d="M91.2,43.2l-0.6,0l-0.6-1l-0.6,1l-0.6,0l0.8-1.3l-0.8-1.2l0.6,0l0.5,0.9l0.5-0.9l0.5,0l-0.7,1.2L91.2,43.2z"
				/>
			<path class="st1" d="M93.8,43.2l-0.6,0l-0.2-0.6l-1,0l-0.2,0.6l-0.5,0l0.9-2.5l0.6,0L93.8,43.2z M92.9,42.2l-0.3-0.9
				c0,0,0-0.1,0-0.2c0,0,0,0.1,0,0.1c0,0,0,0.1,0,0.1l-0.3,0.8L92.9,42.2z"/>
			<path class="st1" d="M96.2,43.2l-0.6,0l-0.8-1.5c-0.1-0.1-0.1-0.2-0.2-0.4c0,0.3,0.1,0.5,0.1,0.6l0,1.3l-0.5,0l0-2.5l0.6,0
				l0.9,1.5c0,0.1,0,0.1,0.1,0.1c0,0,0,0.1,0.1,0.1c0,0.1,0.1,0.1,0.1,0.2c0-0.2,0-0.4-0.1-0.6l0-1.3l0.5,0L96.2,43.2z"/>
			<path class="st1" d="M96.8,43.1l0-2.5l0.6,0c0.2,0,0.3,0,0.4,0c0.1,0,0.2,0,0.4,0.1c0.1,0,0.2,0.1,0.3,0.2
				c0.1,0.1,0.2,0.1,0.2,0.2c0.1,0.1,0.1,0.2,0.1,0.2c0,0.1,0.1,0.2,0.1,0.3c0,0.1,0,0.2,0,0.3c0,0.2,0,0.4-0.1,0.6
				c-0.1,0.2-0.2,0.3-0.3,0.4C98.4,43,98.3,43,98.2,43c-0.1,0-0.2,0.1-0.3,0.1c-0.1,0-0.2,0-0.3,0L96.8,43.1z M97.3,42.7
				C97.4,42.7,97.4,42.7,97.3,42.7c0.1,0,0.1,0,0.1,0c0.1,0,0.3,0,0.4-0.1s0.2-0.1,0.3-0.2c0.1-0.1,0.1-0.2,0.2-0.3
				c0-0.1,0.1-0.2,0.1-0.4c0-0.1,0-0.3-0.1-0.4c-0.1-0.1-0.2-0.2-0.3-0.3c0,0-0.1-0.1-0.2-0.1c-0.1,0-0.1,0-0.2,0
				c-0.1,0-0.1,0-0.2,0s-0.1,0-0.2,0L97.3,42.7z"/>
			<path class="st1" d="M100.9,42.7l0,0.4l-1.5,0l0-2.5l1.5,0l0,0.4l-1,0l0,0.6l0.9,0l0,0.4l-0.9,0l0,0.7L100.9,42.7z"/>
			<path class="st1" d="M102,43.1l-0.5,0l0-2.5l0.8,0c0.2,0,0.3,0,0.5,0c0.1,0,0.2,0.1,0.3,0.2c0.1,0.1,0.1,0.2,0.1,0.4
				c0,0.2,0,0.3-0.1,0.4c-0.1,0.1-0.2,0.2-0.4,0.2c0.1,0,0.1,0.1,0.2,0.1c0,0.1,0.1,0.1,0.1,0.2l0.4,0.9l-0.6,0l-0.3-0.7
				c0-0.1-0.1-0.2-0.1-0.2c0,0-0.1-0.1-0.2-0.1c-0.1,0-0.1,0-0.3,0L102,43.1z M101.9,41.7l0.2,0c0.1,0,0.2,0,0.3-0.1
				c0.1-0.1,0.1-0.1,0.1-0.3c0-0.2-0.1-0.3-0.4-0.3l-0.3,0L101.9,41.7z"/>
		</g>
		<g>
			<path class="st4" d="M123.1,41v8c0,0.8-0.7,1.5-1.5,1.5H73.3c-0.1,0-0.1,0-0.2,0c-0.7-0.1-1.3-0.7-1.3-1.5v-8
				c0-0.8,0.7-1.5,1.5-1.5h48.3c0.1,0,0.1,0,0.2,0C122.5,39.6,123.1,40.2,123.1,41z"/>
		</g>
	</g>
	<g>
		<g>
			<g>
				<path class="st0" d="M121.8,65.8l-0.9,3l-1.4,4.9l-0.9,3.1H73.3c-0.1,0-0.1,0-0.2,0l0.9-3l1.4-4.9l0.9-3h45.3
					C121.7,65.8,121.8,65.8,121.8,65.8z"/>
			</g>
			<g>
				<path class="st1" d="M76.3,65.8l-0.9,3h-3.6v-1.5c0-0.8,0.7-1.5,1.5-1.5H76.3z"/>
			</g>
			<g>
				<polygon class="st2" points="75.4,68.8 74,73.7 71.8,73.7 71.8,68.8 				"/>
			</g>
			<g>
				<path class="st3" d="M74,73.7l-0.9,3c-0.7-0.1-1.3-0.7-1.3-1.5v-1.6H74z"/>
			</g>
			<g>
				<path class="st1" d="M123.1,67.3v1.5h-2.2l0.9-3C122.5,65.9,123.1,66.5,123.1,67.3z"/>
			</g>
			<g>
				<polygon class="st2" points="123.1,68.8 123.1,73.7 119.5,73.7 120.9,68.8 				"/>
			</g>
			<g>
				<path class="st3" d="M123.1,73.7v1.6c0,0.8-0.7,1.5-1.5,1.5h-3l0.9-3.1C119.5,73.7,123.1,73.7,123.1,73.7z"/>
			</g>
		</g>
		<g>
			<line class="st4" x1="96.4" y1="75" x2="96.3" y2="75"/>
		</g>
		<g>
			<path class="st4" d="M123.1,67.3v8c0,0.8-0.7,1.5-1.5,1.5H73.3c-0.1,0-0.1,0-0.2,0c-0.7-0.1-1.3-0.7-1.3-1.5v-8
				c0-0.8,0.7-1.5,1.5-1.5h48.3c0.1,0,0.1,0,0.2,0C122.5,65.9,123.1,66.5,123.1,67.3z"/>
		</g>
		<g class="st5">
			<path class="st1" d="M83.9,75.7h-1v-4.8h1V75.7z"/>
			<path class="st1" d="M87.5,75.7h-1.2l-1.7-4.8h1l1,3.1c0.1,0.2,0.2,0.5,0.2,0.8c0.1-0.3,0.2-0.6,0.2-0.9l1-3h1L87.5,75.7z"/>
			<path class="st1" d="M94.2,75.7h-1.1l-0.4-1.1h-2l-0.4,1.1h-1l1.9-4.8h1.1L94.2,75.7z M92.5,73.8l-0.6-1.7c0,0,0-0.1-0.1-0.3
				c0,0.1,0,0.1-0.1,0.2s0,0.1,0,0.2L91,73.8H92.5z"/>
			<path class="st1" d="M98.9,75.7h-1.2l-1.6-2.9c-0.1-0.2-0.2-0.5-0.4-0.9c0.1,0.5,0.1,0.9,0.1,1.2v2.5h-0.9v-4.8H96l1.6,2.9
				c0.1,0.1,0.1,0.2,0.1,0.2c0,0,0,0.1,0.1,0.3c0,0.1,0.1,0.3,0.2,0.4c-0.1-0.3-0.1-0.7-0.1-1.2v-2.6h0.9L98.9,75.7L98.9,75.7z"/>
			<path class="st1" d="M104.5,73.3c0,0.5-0.1,0.9-0.3,1.3s-0.5,0.7-0.8,0.9s-0.8,0.3-1.3,0.3c-0.5,0-0.9-0.1-1.3-0.3
				c-0.4-0.2-0.6-0.5-0.8-0.9c-0.2-0.4-0.3-0.8-0.3-1.3s0.1-0.9,0.3-1.3c0.2-0.4,0.5-0.7,0.8-0.9c0.4-0.2,0.8-0.3,1.3-0.3
				c0.4,0,0.7,0.1,1,0.2c0.3,0.1,0.5,0.3,0.7,0.5c0.2,0.2,0.3,0.5,0.4,0.8C104.5,72.6,104.5,73,104.5,73.3z M103.5,73.3
				c0-0.2,0-0.4-0.1-0.6c-0.1-0.2-0.1-0.4-0.2-0.6c-0.1-0.2-0.3-0.3-0.4-0.4c-0.2-0.1-0.4-0.2-0.6-0.2c-0.3,0-0.5,0.1-0.7,0.3
				c-0.2,0.2-0.3,0.4-0.4,0.7c-0.1,0.3-0.1,0.6-0.1,0.8c0,0.3,0,0.6,0.1,0.8c0.1,0.3,0.2,0.5,0.4,0.7s0.5,0.3,0.7,0.3
				c0.2,0,0.4-0.1,0.6-0.2c0.2-0.1,0.3-0.2,0.4-0.4c0.1-0.2,0.2-0.4,0.2-0.6C103.5,73.7,103.5,73.5,103.5,73.3z"/>
			<path class="st1" d="M107.8,75.7h-1.2l-1.7-4.8h1l1,3.1c0.1,0.2,0.2,0.5,0.2,0.8c0.1-0.3,0.2-0.6,0.2-0.9l1-3h1L107.8,75.7z"/>
		</g>
		<g class="st5">
			<path class="st6" d="M83.9,75.7h-1v-4.8h1V75.7z"/>
			<path class="st6" d="M87.5,75.7h-1.2l-1.7-4.8h1l1,3.1c0.1,0.2,0.2,0.5,0.2,0.8c0.1-0.3,0.2-0.6,0.2-0.9l1-3h1L87.5,75.7z"/>
			<path class="st6" d="M94.2,75.7h-1.1l-0.4-1.1h-2l-0.4,1.1h-1l1.9-4.8h1.1L94.2,75.7z M92.5,73.8l-0.6-1.7c0,0,0-0.1-0.1-0.3
				c0,0.1,0,0.1-0.1,0.2s0,0.1,0,0.2L91,73.8H92.5z"/>
			<path class="st6" d="M98.9,75.7h-1.2l-1.6-2.9c-0.1-0.2-0.2-0.5-0.4-0.9c0.1,0.5,0.1,0.9,0.1,1.2v2.5h-0.9v-4.8H96l1.6,2.9
				c0.1,0.1,0.1,0.2,0.1,0.2c0,0,0,0.1,0.1,0.3c0,0.1,0.1,0.3,0.2,0.4c-0.1-0.3-0.1-0.7-0.1-1.2v-2.6h0.9L98.9,75.7L98.9,75.7z"/>
			<path class="st6" d="M104.5,73.3c0,0.5-0.1,0.9-0.3,1.3s-0.5,0.7-0.8,0.9s-0.8,0.3-1.3,0.3c-0.5,0-0.9-0.1-1.3-0.3
				c-0.4-0.2-0.6-0.5-0.8-0.9c-0.2-0.4-0.3-0.8-0.3-1.3s0.1-0.9,0.3-1.3c0.2-0.4,0.5-0.7,0.8-0.9c0.4-0.2,0.8-0.3,1.3-0.3
				c0.4,0,0.7,0.1,1,0.2c0.3,0.1,0.5,0.3,0.7,0.5c0.2,0.2,0.3,0.5,0.4,0.8C104.5,72.6,104.5,73,104.5,73.3z M103.5,73.3
				c0-0.2,0-0.4-0.1-0.6c-0.1-0.2-0.1-0.4-0.2-0.6c-0.1-0.2-0.3-0.3-0.4-0.4c-0.2-0.1-0.4-0.2-0.6-0.2c-0.3,0-0.5,0.1-0.7,0.3
				c-0.2,0.2-0.3,0.4-0.4,0.7c-0.1,0.3-0.1,0.6-0.1,0.8c0,0.3,0,0.6,0.1,0.8c0.1,0.3,0.2,0.5,0.4,0.7s0.5,0.3,0.7,0.3
				c0.2,0,0.4-0.1,0.6-0.2c0.2-0.1,0.3-0.2,0.4-0.4c0.1-0.2,0.2-0.4,0.2-0.6C103.5,73.7,103.5,73.5,103.5,73.3z"/>
			<path class="st6" d="M107.8,75.7h-1.2l-1.7-4.8h1l1,3.1c0.1,0.2,0.2,0.5,0.2,0.8c0.1-0.3,0.2-0.6,0.2-0.9l1-3h1L107.8,75.7z"/>
		</g>
		<g class="st5">
			<path class="st1" d="M85,69.6l-0.6,0l-0.2-0.6l-1,0l-0.2,0.6l-0.5,0l0.9-2.5l0.6,0L85,69.6z M84,68.6l-0.3-0.9c0,0,0-0.1,0-0.2
				c0,0,0,0.1,0,0.1s0,0.1,0,0.1l-0.3,0.8L84,68.6z"/>
			<path class="st1" d="M86.8,69.2l0,0.4l-1.5,0l0-2.5l0.5,0l0,2.1L86.8,69.2z"/>
			<path class="st1" d="M88.6,69.2l0,0.4l-1.5,0l0-2.5l1.5,0l0,0.4l-1,0l0,0.6l0.9,0l0,0.4l-0.9,0l0,0.7L88.6,69.2z"/>
			<path class="st1" d="M91.2,69.5l-0.6,0l-0.6-1l-0.6,1l-0.6,0l0.8-1.3l-0.8-1.2l0.6,0l0.5,0.9l0.5-0.9l0.5,0l-0.7,1.2L91.2,69.5z"
				/>
			<path class="st1" d="M93.8,69.5l-0.6,0l-0.2-0.6l-1,0l-0.2,0.6l-0.5,0l0.9-2.5l0.6,0L93.8,69.5z M92.9,68.5l-0.3-0.9
				c0,0,0-0.1,0-0.2c0,0,0,0.1,0,0.1c0,0,0,0.1,0,0.1l-0.3,0.8L92.9,68.5z"/>
			<path class="st1" d="M96.2,69.5l-0.6,0L94.8,68c-0.1-0.1-0.1-0.2-0.2-0.4c0,0.3,0.1,0.5,0.1,0.6l0,1.3l-0.5,0l0-2.5l0.6,0
				l0.9,1.5c0,0.1,0,0.1,0.1,0.1s0,0.1,0.1,0.1c0,0.1,0.1,0.1,0.1,0.2c0-0.2,0-0.4-0.1-0.6l0-1.3l0.5,0L96.2,69.5z"/>
			<path class="st1" d="M96.8,69.5l0-2.5l0.6,0c0.2,0,0.3,0,0.4,0c0.1,0,0.2,0,0.4,0.1c0.1,0,0.2,0.1,0.3,0.2
				c0.1,0.1,0.2,0.1,0.2,0.2c0.1,0.1,0.1,0.2,0.1,0.2c0,0.1,0.1,0.2,0.1,0.3c0,0.1,0,0.2,0,0.3c0,0.2,0,0.4-0.1,0.6
				c-0.1,0.2-0.2,0.3-0.3,0.4c-0.1,0.1-0.2,0.1-0.3,0.1c-0.1,0-0.2,0.1-0.3,0.1c-0.1,0-0.2,0-0.3,0L96.8,69.5z M97.3,69.1
				C97.4,69.1,97.4,69.1,97.3,69.1c0.1,0,0.1,0,0.1,0c0.1,0,0.3,0,0.4-0.1c0.1,0,0.2-0.1,0.3-0.2c0.1-0.1,0.1-0.2,0.2-0.3
				c0-0.1,0.1-0.2,0.1-0.4c0-0.1,0-0.3-0.1-0.4s-0.2-0.2-0.3-0.3c0,0-0.1-0.1-0.2-0.1s-0.1,0-0.2,0c-0.1,0-0.1,0-0.2,0s-0.1,0-0.2,0
				L97.3,69.1z"/>
			<path class="st1" d="M100.9,69l0,0.4l-1.5,0l0-2.5l1.5,0l0,0.4l-1,0l0,0.6l0.9,0l0,0.4l-0.9,0l0,0.7L100.9,69z"/>
			<path class="st1" d="M102,69.4l-0.5,0l0-2.5l0.8,0c0.2,0,0.3,0,0.5,0c0.1,0,0.2,0.1,0.3,0.2c0.1,0.1,0.1,0.2,0.1,0.4
				c0,0.2,0,0.3-0.1,0.4c-0.1,0.1-0.2,0.2-0.4,0.2c0.1,0,0.1,0.1,0.2,0.1c0,0.1,0.1,0.1,0.1,0.2l0.4,0.9l-0.6,0l-0.3-0.7
				c0-0.1-0.1-0.2-0.1-0.2c0,0-0.1-0.1-0.2-0.1c-0.1,0-0.1,0-0.3,0L102,69.4z M101.9,68l0.2,0c0.1,0,0.2,0,0.3-0.1
				c0.1-0.1,0.1-0.1,0.1-0.3c0-0.2-0.1-0.3-0.4-0.3l-0.3,0L101.9,68z"/>
		</g>
		<g>
			<path class="st4" d="M123.1,67.3v8c0,0.8-0.7,1.5-1.5,1.5H73.3c-0.1,0-0.1,0-0.2,0c-0.7-0.1-1.3-0.7-1.3-1.5v-8
				c0-0.8,0.7-1.5,1.5-1.5h48.3c0.1,0,0.1,0,0.2,0C122.5,65.9,123.1,66.5,123.1,67.3z"/>
		</g>
	</g>
	<g>
		<g>
			<g>
				<path class="st0" d="M121.8,92.1l-0.9,3l-1.4,4.9l-0.9,3.1H73.3c-0.1,0-0.1,0-0.2,0l0.9-3l1.4-4.9l0.9-3h45.3
					C121.7,92.1,121.8,92.1,121.8,92.1z"/>
			</g>
			<g>
				<path class="st1" d="M76.3,92.1l-0.9,3h-3.6v-1.5c0-0.8,0.7-1.5,1.5-1.5C73.3,92.1,76.3,92.1,76.3,92.1z"/>
			</g>
			<g>
				<polygon class="st2" points="75.4,95.1 74,100.1 71.8,100.1 71.8,95.1 				"/>
			</g>
			<g>
				<path class="st3" d="M74,100.1l-0.9,3c-0.7-0.1-1.3-0.7-1.3-1.5v-1.6H74z"/>
			</g>
			<g>
				<path class="st1" d="M123.1,93.6v1.5h-2.2l0.9-3C122.5,92.2,123.1,92.9,123.1,93.6z"/>
			</g>
			<g>
				<polygon class="st2" points="123.1,95.1 123.1,100.1 119.5,100.1 120.9,95.1 				"/>
			</g>
			<g>
				<path class="st3" d="M123.1,100.1v1.6c0,0.8-0.7,1.5-1.5,1.5h-3l0.9-3.1L123.1,100.1z"/>
			</g>
		</g>
		<g>
			<line class="st4" x1="96.4" y1="101.3" x2="96.3" y2="101.3"/>
		</g>
		<g>
			<path class="st4" d="M123.1,93.6v8c0,0.8-0.7,1.5-1.5,1.5H73.3c-0.1,0-0.1,0-0.2,0c-0.7-0.1-1.3-0.7-1.3-1.5v-8
				c0-0.8,0.7-1.5,1.5-1.5h48.3c0.1,0,0.1,0,0.2,0C122.5,92.2,123.1,92.9,123.1,93.6z"/>
		</g>
		<g class="st5">
			<path class="st1" d="M83.9,102h-1v-4.8h1V102z"/>
			<path class="st1" d="M87.5,102h-1.2l-1.7-4.8h1l1,3.1c0.1,0.2,0.2,0.5,0.2,0.8c0.1-0.3,0.2-0.6,0.2-0.9l1-3h1L87.5,102z"/>
			<path class="st1" d="M94.2,102h-1.1l-0.4-1.1h-2l-0.4,1.1h-1l1.9-4.8h1.1L94.2,102z M92.5,100.1l-0.6-1.7c0,0,0-0.1-0.1-0.3
				c0,0.1,0,0.1-0.1,0.2c0,0.1,0,0.1,0,0.2l-0.6,1.6H92.5z"/>
			<path class="st1" d="M98.9,102h-1.2l-1.6-2.9c-0.1-0.2-0.2-0.5-0.4-0.9c0.1,0.5,0.1,0.9,0.1,1.2v2.5h-0.9v-4.8H96l1.6,2.9
				c0.1,0.1,0.1,0.2,0.1,0.2c0,0,0,0.1,0.1,0.3c0,0.1,0.1,0.3,0.2,0.4c-0.1-0.3-0.1-0.7-0.1-1.2v-2.6h0.9L98.9,102L98.9,102z"/>
			<path class="st1" d="M104.5,99.6c0,0.5-0.1,0.9-0.3,1.3s-0.5,0.7-0.8,0.9s-0.8,0.3-1.3,0.3c-0.5,0-0.9-0.1-1.3-0.3
				c-0.4-0.2-0.6-0.5-0.8-0.9c-0.2-0.4-0.3-0.8-0.3-1.3c0-0.5,0.1-0.9,0.3-1.3c0.2-0.4,0.5-0.7,0.8-0.9c0.4-0.2,0.8-0.3,1.3-0.3
				c0.4,0,0.7,0.1,1,0.2c0.3,0.1,0.5,0.3,0.7,0.5c0.2,0.2,0.3,0.5,0.4,0.8C104.5,98.9,104.5,99.3,104.5,99.6z M103.5,99.6
				c0-0.2,0-0.4-0.1-0.6c-0.1-0.2-0.1-0.4-0.2-0.6c-0.1-0.2-0.3-0.3-0.4-0.4c-0.2-0.1-0.4-0.2-0.6-0.2c-0.3,0-0.5,0.1-0.7,0.3
				s-0.3,0.4-0.4,0.7c-0.1,0.3-0.1,0.6-0.1,0.8c0,0.3,0,0.6,0.1,0.8c0.1,0.3,0.2,0.5,0.4,0.7s0.5,0.3,0.7,0.3c0.2,0,0.4-0.1,0.6-0.2
				c0.2-0.1,0.3-0.2,0.4-0.4c0.1-0.2,0.2-0.4,0.2-0.6C103.5,100,103.5,99.8,103.5,99.6z"/>
			<path class="st1" d="M107.8,102h-1.2l-1.7-4.8h1l1,3.1c0.1,0.2,0.2,0.5,0.2,0.8c0.1-0.3,0.2-0.6,0.2-0.9l1-3h1L107.8,102z"/>
		</g>
		<g class="st5">
			<path class="st6" d="M83.9,102h-1v-4.8h1V102z"/>
			<path class="st6" d="M87.5,102h-1.2l-1.7-4.8h1l1,3.1c0.1,0.2,0.2,0.5,0.2,0.8c0.1-0.3,0.2-0.6,0.2-0.9l1-3h1L87.5,102z"/>
			<path class="st6" d="M94.2,102h-1.1l-0.4-1.1h-2l-0.4,1.1h-1l1.9-4.8h1.1L94.2,102z M92.5,100.1l-0.6-1.7c0,0,0-0.1-0.1-0.3
				c0,0.1,0,0.1-0.1,0.2c0,0.1,0,0.1,0,0.2l-0.6,1.6H92.5z"/>
			<path class="st6" d="M98.9,102h-1.2l-1.6-2.9c-0.1-0.2-0.2-0.5-0.4-0.9c0.1,0.5,0.1,0.9,0.1,1.2v2.5h-0.9v-4.8H96l1.6,2.9
				c0.1,0.1,0.1,0.2,0.1,0.2c0,0,0,0.1,0.1,0.3c0,0.1,0.1,0.3,0.2,0.4c-0.1-0.3-0.1-0.7-0.1-1.2v-2.6h0.9L98.9,102L98.9,102z"/>
			<path class="st6" d="M104.5,99.6c0,0.5-0.1,0.9-0.3,1.3s-0.5,0.7-0.8,0.9s-0.8,0.3-1.3,0.3c-0.5,0-0.9-0.1-1.3-0.3
				c-0.4-0.2-0.6-0.5-0.8-0.9c-0.2-0.4-0.3-0.8-0.3-1.3c0-0.5,0.1-0.9,0.3-1.3c0.2-0.4,0.5-0.7,0.8-0.9c0.4-0.2,0.8-0.3,1.3-0.3
				c0.4,0,0.7,0.1,1,0.2c0.3,0.1,0.5,0.3,0.7,0.5c0.2,0.2,0.3,0.5,0.4,0.8C104.5,98.9,104.5,99.3,104.5,99.6z M103.5,99.6
				c0-0.2,0-0.4-0.1-0.6c-0.1-0.2-0.1-0.4-0.2-0.6c-0.1-0.2-0.3-0.3-0.4-0.4c-0.2-0.1-0.4-0.2-0.6-0.2c-0.3,0-0.5,0.1-0.7,0.3
				s-0.3,0.4-0.4,0.7c-0.1,0.3-0.1,0.6-0.1,0.8c0,0.3,0,0.6,0.1,0.8c0.1,0.3,0.2,0.5,0.4,0.7s0.5,0.3,0.7,0.3c0.2,0,0.4-0.1,0.6-0.2
				c0.2-0.1,0.3-0.2,0.4-0.4c0.1-0.2,0.2-0.4,0.2-0.6C103.5,100,103.5,99.8,103.5,99.6z"/>
			<path class="st6" d="M107.8,102h-1.2l-1.7-4.8h1l1,3.1c0.1,0.2,0.2,0.5,0.2,0.8c0.1-0.3,0.2-0.6,0.2-0.9l1-3h1L107.8,102z"/>
		</g>
		<g class="st5">
			<path class="st1" d="M85,95.9l-0.6,0l-0.2-0.6l-1,0L82.9,96l-0.5,0l0.9-2.5l0.6,0L85,95.9z M84,95l-0.3-0.9c0,0,0-0.1,0-0.2
				c0,0,0,0.1,0,0.1s0,0.1,0,0.1L83.3,95L84,95z"/>
			<path class="st1" d="M86.8,95.5l0,0.4l-1.5,0l0-2.5l0.5,0l0,2.1L86.8,95.5z"/>
			<path class="st1" d="M88.6,95.5l0,0.4l-1.5,0l0-2.5l1.5,0l0,0.4l-1,0l0,0.6l0.9,0l0,0.4l-0.9,0l0,0.7L88.6,95.5z"/>
			<path class="st1" d="M91.2,95.8l-0.6,0l-0.6-1l-0.6,1l-0.6,0l0.8-1.3l-0.8-1.2l0.6,0l0.5,0.9l0.5-0.9l0.5,0l-0.7,1.2L91.2,95.8z"
				/>
			<path class="st1" d="M93.8,95.8l-0.6,0l-0.2-0.6l-1,0l-0.2,0.6l-0.5,0l0.9-2.5l0.6,0L93.8,95.8z M92.9,94.8L92.6,94
				c0,0,0-0.1,0-0.2c0,0,0,0.1,0,0.1c0,0,0,0.1,0,0.1l-0.3,0.8L92.9,94.8z"/>
			<path class="st1" d="M96.2,95.8l-0.6,0l-0.8-1.5c-0.1-0.1-0.1-0.2-0.2-0.4c0,0.3,0.1,0.5,0.1,0.6l0,1.3l-0.5,0l0-2.5l0.6,0
				l0.9,1.5c0,0.1,0,0.1,0.1,0.1s0,0.1,0.1,0.1c0,0.1,0.1,0.1,0.1,0.2c0-0.2,0-0.4-0.1-0.6l0-1.3l0.5,0L96.2,95.8z"/>
			<path class="st1" d="M96.8,95.8l0-2.5l0.6,0c0.2,0,0.3,0,0.4,0c0.1,0,0.2,0,0.4,0.1c0.1,0,0.2,0.1,0.3,0.2
				c0.1,0.1,0.2,0.1,0.2,0.2c0.1,0.1,0.1,0.2,0.1,0.2c0,0.1,0.1,0.2,0.1,0.3c0,0.1,0,0.2,0,0.3c0,0.2,0,0.4-0.1,0.6
				c-0.1,0.2-0.2,0.3-0.3,0.4c-0.1,0.1-0.2,0.1-0.3,0.1c-0.1,0-0.2,0.1-0.3,0.1c-0.1,0-0.2,0-0.3,0L96.8,95.8z M97.3,95.4
				C97.4,95.4,97.4,95.4,97.3,95.4c0.1,0,0.1,0,0.1,0c0.1,0,0.3,0,0.4-0.1c0.1,0,0.2-0.1,0.3-0.2c0.1-0.1,0.1-0.2,0.2-0.3
				c0-0.1,0.1-0.2,0.1-0.4c0-0.1,0-0.3-0.1-0.4c-0.1-0.1-0.2-0.2-0.3-0.3c0,0-0.1-0.1-0.2-0.1c-0.1,0-0.1,0-0.2,0
				c-0.1,0-0.1,0-0.2,0s-0.1,0-0.2,0L97.3,95.4z"/>
			<path class="st1" d="M100.9,95.3l0,0.4l-1.5,0l0-2.5l1.5,0l0,0.4l-1,0l0,0.6l0.9,0l0,0.4l-0.9,0l0,0.7L100.9,95.3z"/>
			<path class="st1" d="M102,95.7l-0.5,0l0-2.5l0.8,0c0.2,0,0.3,0,0.5,0c0.1,0,0.2,0.1,0.3,0.2c0.1,0.1,0.1,0.2,0.1,0.4
				c0,0.2,0,0.3-0.1,0.4c-0.1,0.1-0.2,0.2-0.4,0.2c0.1,0,0.1,0.1,0.2,0.1c0,0.1,0.1,0.1,0.1,0.2l0.4,0.9l-0.6,0l-0.3-0.7
				c0-0.1-0.1-0.2-0.1-0.2c0,0-0.1-0.1-0.2-0.1c-0.1,0-0.1,0-0.3,0L102,95.7z M101.9,94.3l0.2,0c0.1,0,0.2,0,0.3-0.1
				c0.1-0.1,0.1-0.1,0.1-0.3c0-0.2-0.1-0.3-0.4-0.3l-0.3,0L101.9,94.3z"/>
		</g>
		<g>
			<path class="st4" d="M123.1,93.6v8c0,0.8-0.7,1.5-1.5,1.5H73.3c-0.1,0-0.1,0-0.2,0c-0.7-0.1-1.3-0.7-1.3-1.5v-8
				c0-0.8,0.7-1.5,1.5-1.5h48.3c0.1,0,0.1,0,0.2,0C122.5,92.2,123.1,92.9,123.1,93.6z"/>
		</g>
	</g>
</g>
</svg>
