<?xml version="1.0" encoding="utf-8"?>
<!-- Generator: Adobe Illustrator 26.0.1, SVG Export Plug-In . SVG Version: 6.00 Build 0)  -->
<svg version="1.1" id="Слой_1" xmlns="http://www.w3.org/2000/svg" xmlns:xlink="http://www.w3.org/1999/xlink" x="0px" y="0px"
	 viewBox="0 0 141.73 141.73" style="enable-background:new 0 0 141.73 141.73;" xml:space="preserve">
<style type="text/css">
	.st0{fill:#FEEB1A;}
	.st1{fill:#1E1E1C;stroke:#1E1E1C;stroke-width:0.4524;stroke-miterlimit:10;}
	.st2{fill:#1E1E1C;}
</style>
<rect x="-4.94" y="-5.25" width="151.95" height="151.95"/>
<path class="st0" d="M127.51,57.5H14.22c-3.16,0-5.72,2.56-5.72,5.72v15.29c0,3.16,2.56,5.72,5.72,5.72h113.29
	c3.16,0,5.72-2.56,5.72-5.72V63.22C133.23,60.06,130.67,57.5,127.51,57.5z"/>
<g>
	<path class="st1" d="M36.78,75.68h-1.96v-5.74c0.03-0.87,0.07-1.75,0.13-2.63h-0.06c-0.09,0.38-0.19,0.72-0.29,1.01l-2.48,7.36
		h-1.81l-2.1-6.08c-0.26-0.76-0.48-1.52-0.67-2.29h-0.06c0.09,0.94,0.14,1.79,0.14,2.56v5.82h-1.87v-9.72h3.1l1.77,5.1
		c0.28,0.82,0.48,1.62,0.63,2.39c0.09-0.41,0.17-0.76,0.25-1.06c0.08-0.3,0.17-0.6,0.27-0.91l1.87-5.52h3.15V75.68z"/>
	<path class="st1" d="M48.16,70.88c0,0.97-0.19,1.83-0.57,2.6c-0.38,0.76-0.92,1.36-1.64,1.78c-0.72,0.42-1.56,0.64-2.53,0.64
		c-1,0-1.86-0.21-2.58-0.64c-0.72-0.43-1.27-1.03-1.63-1.8c-0.37-0.77-0.55-1.65-0.55-2.65s0.19-1.88,0.56-2.64s0.91-1.36,1.63-1.78
		c0.72-0.42,1.58-0.64,2.58-0.64c0.76,0,1.44,0.13,2.04,0.38c0.6,0.25,1.1,0.61,1.5,1.07s0.7,1,0.9,1.62
		C48.05,69.44,48.16,70.13,48.16,70.88z M46.07,70.84c0-0.42-0.05-0.84-0.16-1.27s-0.27-0.81-0.49-1.16
		c-0.22-0.35-0.5-0.63-0.84-0.84c-0.34-0.21-0.73-0.32-1.19-0.32c-0.6,0-1.1,0.18-1.5,0.53c-0.4,0.36-0.7,0.81-0.89,1.36
		c-0.19,0.55-0.28,1.12-0.28,1.69c0,0.57,0.09,1.14,0.28,1.68c0.19,0.55,0.49,1,0.89,1.35c0.41,0.35,0.91,0.53,1.51,0.53
		c0.45,0,0.84-0.1,1.18-0.31s0.62-0.49,0.83-0.84s0.38-0.74,0.48-1.15C46.02,71.68,46.07,71.26,46.07,70.84z"/>
	<path class="st1" d="M57.06,73.72l0.07,1.72c-0.81,0.21-1.54,0.32-2.21,0.32c-0.76,0-1.46-0.1-2.11-0.3
		c-0.65-0.2-1.21-0.5-1.71-0.92s-0.87-0.92-1.13-1.53c-0.26-0.61-0.39-1.31-0.39-2.1s0.12-1.5,0.36-2.13
		c0.24-0.63,0.58-1.16,1.04-1.59c0.45-0.43,1-0.76,1.63-0.98c0.64-0.22,1.35-0.33,2.13-0.33c0.7,0,1.49,0.14,2.35,0.42l-0.16,1.67
		c-0.64-0.35-1.34-0.53-2.09-0.53c-0.64,0-1.2,0.14-1.68,0.41c-0.48,0.27-0.86,0.65-1.11,1.14c-0.26,0.49-0.39,1.05-0.39,1.69
		c0,0.66,0.14,1.25,0.41,1.78c0.27,0.53,0.66,0.94,1.16,1.22s1.09,0.43,1.77,0.43C55.64,74.12,56.33,73.99,57.06,73.72z"/>
	<path class="st1" d="M66.69,75.68h-2.53l-3.15-4.01c-0.04-0.05-0.19-0.27-0.46-0.64c0.03,0.29,0.04,0.58,0.04,0.86v3.79h-1.96
		v-9.72h1.96v3.45c0,0.27-0.01,0.52-0.04,0.78c0.28-0.38,0.45-0.6,0.51-0.67l3.03-3.56h2.38l-3.98,4.49L66.69,75.68z"/>
	<path class="st1" d="M74.04,65.97h1.89v5.89c0,0.89-0.14,1.63-0.41,2.23s-0.7,1.05-1.28,1.36c-0.58,0.31-1.32,0.46-2.23,0.46
		c-0.91,0-1.66-0.15-2.26-0.44c-0.6-0.29-1.04-0.74-1.33-1.34s-0.43-1.36-0.43-2.28v-5.87h1.96v5.7c0,0.81,0.15,1.45,0.46,1.94
		c0.31,0.49,0.85,0.73,1.62,0.73c0.53,0,0.94-0.13,1.24-0.38c0.29-0.26,0.49-0.59,0.6-0.99c0.11-0.41,0.16-0.86,0.16-1.38V65.97z"/>
	<path class="st1" d="M80.24,71.99v3.69h-1.96v-9.72h2.67c0.55,0,1.05,0.04,1.49,0.13c0.44,0.09,0.85,0.25,1.21,0.5
		c0.37,0.26,0.65,0.6,0.86,1.01c0.21,0.41,0.31,0.85,0.31,1.32c0,0.54-0.1,1.01-0.29,1.41c-0.2,0.4-0.46,0.72-0.8,0.97
		c-0.34,0.25-0.73,0.43-1.19,0.55c-0.46,0.12-0.94,0.17-1.45,0.17C80.89,72.02,80.61,72.01,80.24,71.99z M80.24,70.49
		c0.34,0,0.65-0.01,0.94-0.04c0.28-0.03,0.54-0.09,0.77-0.19c0.23-0.1,0.41-0.25,0.56-0.46s0.22-0.49,0.22-0.84
		c0-0.47-0.12-0.81-0.36-1.03c-0.24-0.22-0.52-0.35-0.85-0.4s-0.75-0.08-1.27-0.09V70.49z"/>
</g>
<g>
	<path class="st2" d="M91.89,75.8l0.08-0.8c0.35,0.19,0.69,0.29,1.01,0.29c0.21,0,0.39-0.05,0.55-0.15c0.16-0.1,0.23-0.25,0.23-0.45
		c0-0.2-0.07-0.34-0.2-0.43c-0.13-0.08-0.37-0.2-0.72-0.35c-0.35-0.15-0.61-0.32-0.78-0.5c-0.17-0.18-0.26-0.45-0.26-0.79
		c0-0.29,0.07-0.52,0.22-0.71c0.14-0.19,0.34-0.33,0.58-0.42s0.5-0.14,0.78-0.14c0.38,0,0.73,0.06,1.07,0.18l-0.08,0.74
		c-0.33-0.15-0.63-0.22-0.93-0.22c-0.19,0-0.36,0.04-0.5,0.13c-0.14,0.09-0.21,0.22-0.21,0.41c0,0.18,0.05,0.3,0.16,0.36
		c0.11,0.07,0.35,0.18,0.73,0.35c0.38,0.17,0.66,0.34,0.84,0.53s0.27,0.45,0.27,0.79c0,0.24-0.04,0.45-0.13,0.63
		c-0.09,0.18-0.21,0.32-0.37,0.44s-0.34,0.2-0.54,0.25S93.25,76,93.02,76C92.66,76,92.28,75.93,91.89,75.8z"/>
	<path class="st2" d="M97.28,75.9h-0.9v-3.73H95.1v-0.74h3.46v0.74h-1.29V75.9z"/>
	<path class="st2" d="M100.12,75.9h-0.9v-4.47h0.9V75.9z"/>
	<path class="st2" d="M104.47,75l0.03,0.79c-0.37,0.1-0.71,0.15-1.02,0.15c-0.35,0-0.67-0.05-0.97-0.14
		c-0.3-0.09-0.56-0.23-0.78-0.42c-0.23-0.19-0.4-0.42-0.52-0.7c-0.12-0.28-0.18-0.6-0.18-0.96s0.05-0.69,0.16-0.98
		c0.11-0.29,0.27-0.53,0.48-0.73c0.21-0.2,0.46-0.35,0.75-0.45c0.29-0.1,0.62-0.15,0.98-0.15c0.32,0,0.68,0.06,1.08,0.19l-0.07,0.77
		c-0.29-0.16-0.61-0.24-0.96-0.24c-0.29,0-0.55,0.06-0.77,0.19c-0.22,0.13-0.39,0.3-0.51,0.53s-0.18,0.48-0.18,0.78
		c0,0.3,0.06,0.58,0.19,0.82c0.13,0.24,0.3,0.43,0.54,0.56c0.23,0.13,0.5,0.2,0.81,0.2C103.82,75.18,104.13,75.12,104.47,75z"/>
	<path class="st2" d="M108.89,75.9h-1.17l-1.45-1.84c-0.02-0.02-0.09-0.12-0.21-0.29c0.01,0.13,0.02,0.26,0.02,0.4v1.74h-0.9v-4.47
		h0.9v1.59c0,0.12-0.01,0.24-0.02,0.36c0.13-0.17,0.21-0.28,0.24-0.31l1.39-1.64h1.09l-1.83,2.06L108.89,75.9z"/>
	<path class="st2" d="M112.17,75.17v0.73h-2.67v-4.47h2.65v0.74h-1.74v1.08h1.6v0.73h-1.6v1.19H112.17z"/>
	<path class="st2" d="M114,75.9h-0.91v-4.47h1.47c0.29,0,0.56,0.03,0.8,0.1s0.44,0.18,0.58,0.36s0.22,0.41,0.22,0.72
		c0,0.29-0.08,0.52-0.24,0.71c-0.16,0.19-0.38,0.3-0.66,0.34c0.15,0.05,0.25,0.13,0.33,0.24c0.07,0.1,0.15,0.25,0.22,0.44l0.64,1.56
		h-1l-0.49-1.27c-0.07-0.18-0.14-0.31-0.21-0.39c-0.07-0.08-0.17-0.13-0.28-0.16c-0.11-0.03-0.27-0.04-0.47-0.04V75.9z
		 M113.99,73.35h0.4c0.23,0,0.43-0.05,0.58-0.15c0.15-0.1,0.23-0.25,0.23-0.47c0-0.41-0.24-0.61-0.73-0.61h-0.48V73.35z"/>
	<path class="st2" d="M117.02,75.8l0.08-0.8c0.35,0.19,0.69,0.29,1.01,0.29c0.21,0,0.39-0.05,0.55-0.15
		c0.16-0.1,0.23-0.25,0.23-0.45c0-0.2-0.07-0.34-0.2-0.43c-0.13-0.08-0.37-0.2-0.72-0.35c-0.35-0.15-0.61-0.32-0.78-0.5
		c-0.17-0.18-0.26-0.45-0.26-0.79c0-0.29,0.07-0.52,0.22-0.71c0.14-0.19,0.34-0.33,0.58-0.42s0.5-0.14,0.78-0.14
		c0.38,0,0.73,0.06,1.07,0.18l-0.08,0.74c-0.33-0.15-0.63-0.22-0.93-0.22c-0.19,0-0.36,0.04-0.5,0.13
		c-0.14,0.09-0.21,0.22-0.21,0.41c0,0.18,0.05,0.3,0.16,0.36c0.11,0.07,0.35,0.18,0.73,0.35c0.38,0.17,0.66,0.34,0.84,0.53
		s0.27,0.45,0.27,0.79c0,0.24-0.04,0.45-0.13,0.63c-0.09,0.18-0.21,0.32-0.37,0.44s-0.34,0.2-0.54,0.25S118.38,76,118.15,76
		C117.79,76,117.41,75.93,117.02,75.8z"/>
</g>
</svg>
