<?xml version="1.0" encoding="utf-8"?>
<!-- Generator: Adobe Illustrator 26.0.1, SVG Export Plug-In . SVG Version: 6.00 Build 0)  -->
<svg version="1.1" id="Слой_1" xmlns="http://www.w3.org/2000/svg" xmlns:xlink="http://www.w3.org/1999/xlink" x="0px" y="0px"
	 viewBox="0 0 141.73 141.73" style="enable-background:new 0 0 141.73 141.73;" xml:space="preserve">
<style type="text/css">
	.st0{fill:#FFFFFF;}
	.st1{font-family:'BastardusSans';}
	.st2{font-size:10.6599px;}
	.st3{fill:#E50C7E;}
	.st4{fill:#FFFFFF;stroke:#FFFFFF;stroke-width:0.6068;stroke-miterlimit:10;}
</style>
<rect x="-4.94" y="-5.25" class="st0" width="151.95" height="151.95"/>
<text transform="matrix(1 0 0 1 105.2698 66.5792)" class="st0 st1 st2"> </text>
<g>
	<path class="st3" d="M127.51,57.5H14.22c-3.16,0-5.72,2.56-5.72,5.72v15.29c0,3.16,2.56,5.72,5.72,5.72h113.29
		c3.16,0,5.72-2.56,5.72-5.72V63.22C133.23,60.06,130.67,57.5,127.51,57.5z"/>
	<g>
		<path class="st4" d="M44.98,79.25h-2.64v-7.7c0.04-1.17,0.1-2.35,0.17-3.52h-0.08c-0.13,0.52-0.26,0.97-0.39,1.36l-3.32,9.87H36.3
			l-2.82-8.15c-0.35-1.02-0.65-2.04-0.9-3.07h-0.08c0.13,1.26,0.19,2.4,0.19,3.43v7.8h-2.5V66.21h4.16l2.37,6.85
			c0.37,1.1,0.65,2.17,0.84,3.21c0.11-0.55,0.22-1.02,0.33-1.43c0.1-0.4,0.22-0.81,0.36-1.22l2.5-7.41h4.22V79.25z"/>
		<path class="st4" d="M60.23,72.82c0,1.3-0.25,2.46-0.76,3.49c-0.51,1.02-1.24,1.82-2.2,2.39c-0.96,0.57-2.09,0.85-3.4,0.85
			c-1.34,0-2.5-0.29-3.47-0.86c-0.97-0.57-1.7-1.38-2.19-2.41c-0.49-1.03-0.74-2.22-0.74-3.56c0-1.34,0.25-2.52,0.75-3.54
			c0.5-1.02,1.23-1.82,2.19-2.39c0.96-0.57,2.12-0.85,3.46-0.85c1.02,0,1.93,0.17,2.73,0.51c0.8,0.34,1.47,0.81,2,1.43
			c0.53,0.62,0.94,1.34,1.21,2.18C60.1,70.88,60.23,71.8,60.23,72.82z M57.44,72.76c0-0.57-0.07-1.13-0.21-1.7
			c-0.14-0.57-0.36-1.08-0.65-1.56c-0.3-0.47-0.67-0.85-1.12-1.13c-0.45-0.28-0.98-0.42-1.59-0.42c-0.8,0-1.47,0.24-2.01,0.72
			c-0.54,0.48-0.93,1.09-1.19,1.83c-0.25,0.74-0.38,1.5-0.38,2.27c0,0.77,0.13,1.52,0.38,2.26c0.25,0.74,0.65,1.34,1.2,1.81
			c0.54,0.47,1.22,0.71,2.02,0.71c0.6,0,1.12-0.14,1.58-0.42c0.45-0.28,0.83-0.66,1.12-1.13c0.29-0.47,0.51-0.99,0.65-1.55
			C57.37,73.88,57.44,73.32,57.44,72.76z"/>
		<path class="st4" d="M72.18,76.62l0.1,2.3c-1.08,0.29-2.07,0.43-2.97,0.43c-1.02,0-1.96-0.13-2.83-0.4
			c-0.87-0.27-1.63-0.68-2.29-1.23c-0.66-0.55-1.17-1.23-1.52-2.05c-0.35-0.81-0.53-1.75-0.53-2.82c0-1.06,0.16-2.01,0.48-2.85
			c0.32-0.84,0.78-1.55,1.39-2.13c0.61-0.58,1.34-1.02,2.19-1.31c0.85-0.29,1.81-0.44,2.86-0.44c0.94,0,1.99,0.19,3.15,0.56
			l-0.21,2.23c-0.86-0.47-1.79-0.71-2.8-0.71c-0.85,0-1.6,0.18-2.25,0.55c-0.65,0.37-1.15,0.88-1.49,1.53
			c-0.35,0.66-0.52,1.41-0.52,2.26c0,0.88,0.18,1.68,0.55,2.39c0.37,0.71,0.89,1.25,1.56,1.64c0.67,0.39,1.46,0.58,2.37,0.58
			C70.28,77.16,71.2,76.98,72.18,76.62z"/>
		<path class="st4" d="M85.1,79.25h-3.4l-4.22-5.38c-0.06-0.07-0.26-0.36-0.61-0.86c0.04,0.39,0.06,0.77,0.06,1.16v5.08h-2.64V66.21
			h2.64v4.63c0,0.36-0.02,0.7-0.06,1.04c0.38-0.51,0.6-0.81,0.69-0.9l4.07-4.77h3.19l-5.34,6.02L85.1,79.25z"/>
		<path class="st4" d="M94.96,66.23h2.54v7.9c0,1.19-0.18,2.19-0.55,2.99c-0.37,0.8-0.94,1.41-1.72,1.82
			c-0.78,0.41-1.77,0.62-2.99,0.62c-1.22,0-2.23-0.2-3.03-0.59c-0.8-0.39-1.39-0.99-1.78-1.8c-0.39-0.81-0.58-1.83-0.58-3.06v-7.88
			h2.64v7.65c0,1.08,0.21,1.95,0.62,2.6c0.41,0.65,1.14,0.98,2.18,0.98c0.71,0,1.27-0.17,1.66-0.52c0.39-0.34,0.66-0.79,0.81-1.33
			c0.14-0.54,0.21-1.16,0.21-1.85V66.23z"/>
		<path class="st4" d="M103.27,74.31v4.95h-2.64V66.21h3.58c0.74,0,1.41,0.06,2,0.17c0.6,0.11,1.13,0.34,1.62,0.67
			c0.49,0.35,0.87,0.8,1.16,1.36c0.28,0.55,0.42,1.15,0.42,1.78c0,0.73-0.13,1.36-0.39,1.89c-0.26,0.53-0.62,0.97-1.07,1.3
			c-0.45,0.33-0.98,0.58-1.59,0.74c-0.61,0.16-1.26,0.23-1.95,0.23C104.14,74.34,103.76,74.33,103.27,74.31z M103.27,72.29
			c0.46,0,0.88-0.02,1.26-0.06c0.38-0.04,0.72-0.12,1.03-0.25c0.31-0.13,0.56-0.33,0.75-0.62c0.19-0.29,0.29-0.66,0.29-1.13
			c0-0.63-0.16-1.09-0.48-1.38c-0.32-0.29-0.7-0.47-1.14-0.53c-0.44-0.07-1.01-0.11-1.7-0.12V72.29z"/>
	</g>
	<g>
		<path class="st0" d="M30.66,63.45l0.08-0.8c0.35,0.19,0.69,0.29,1.01,0.29c0.21,0,0.39-0.05,0.55-0.15
			c0.16-0.1,0.23-0.25,0.23-0.45c0-0.2-0.07-0.34-0.2-0.43c-0.13-0.09-0.37-0.2-0.72-0.35c-0.35-0.15-0.61-0.32-0.78-0.5
			c-0.17-0.18-0.26-0.45-0.26-0.79c0-0.29,0.07-0.52,0.22-0.71c0.15-0.19,0.34-0.33,0.58-0.42c0.24-0.09,0.5-0.14,0.78-0.14
			c0.38,0,0.73,0.06,1.07,0.18l-0.08,0.74c-0.32-0.15-0.63-0.22-0.93-0.22c-0.19,0-0.36,0.04-0.5,0.13
			c-0.14,0.09-0.21,0.22-0.21,0.41c0,0.18,0.05,0.3,0.16,0.36s0.35,0.18,0.73,0.35c0.38,0.17,0.66,0.34,0.84,0.53
			c0.18,0.19,0.27,0.45,0.27,0.79c0,0.24-0.04,0.45-0.13,0.63c-0.09,0.18-0.21,0.32-0.37,0.44c-0.16,0.11-0.34,0.2-0.54,0.25
			c-0.2,0.05-0.42,0.08-0.65,0.08C31.43,63.65,31.05,63.59,30.66,63.45z"/>
		<path class="st0" d="M36.05,63.55h-0.9v-3.73h-1.28v-0.74h3.46v0.74h-1.29V63.55z"/>
		<path class="st0" d="M38.89,63.55h-0.9v-4.47h0.9V63.55z"/>
		<path class="st0" d="M43.24,62.65l0.03,0.79c-0.37,0.1-0.71,0.15-1.02,0.15c-0.35,0-0.67-0.05-0.97-0.14
			c-0.3-0.09-0.56-0.23-0.78-0.42c-0.23-0.19-0.4-0.42-0.52-0.7c-0.12-0.28-0.18-0.6-0.18-0.97s0.05-0.69,0.16-0.98
			c0.11-0.29,0.27-0.53,0.48-0.73c0.21-0.2,0.46-0.35,0.75-0.45c0.29-0.1,0.62-0.15,0.98-0.15c0.32,0,0.68,0.06,1.08,0.19
			l-0.07,0.77c-0.29-0.16-0.61-0.24-0.96-0.24c-0.29,0-0.55,0.06-0.77,0.19c-0.22,0.13-0.39,0.3-0.51,0.53
			c-0.12,0.22-0.18,0.48-0.18,0.78c0,0.3,0.06,0.58,0.19,0.82c0.13,0.24,0.3,0.43,0.54,0.56c0.23,0.13,0.5,0.2,0.81,0.2
			C42.59,62.84,42.9,62.77,43.24,62.65z"/>
		<path class="st0" d="M47.66,63.55H46.5l-1.45-1.84c-0.02-0.02-0.09-0.12-0.21-0.29c0.01,0.13,0.02,0.27,0.02,0.4v1.74h-0.9v-4.47
			h0.9v1.59c0,0.12-0.01,0.24-0.02,0.36c0.13-0.17,0.21-0.28,0.24-0.31l1.39-1.64h1.09l-1.83,2.06L47.66,63.55z"/>
		<path class="st0" d="M50.94,62.82v0.73h-2.67v-4.47h2.65v0.74h-1.74v1.08h1.6v0.73h-1.6v1.19H50.94z"/>
		<path class="st0" d="M52.77,63.55h-0.91v-4.47h1.47c0.29,0,0.56,0.03,0.8,0.1c0.24,0.06,0.44,0.18,0.58,0.36
			c0.15,0.17,0.22,0.41,0.22,0.72c0,0.29-0.08,0.52-0.24,0.71c-0.16,0.19-0.38,0.3-0.66,0.35c0.15,0.05,0.26,0.13,0.33,0.24
			c0.07,0.1,0.15,0.25,0.22,0.44l0.64,1.56h-1l-0.49-1.27c-0.07-0.18-0.14-0.31-0.21-0.39c-0.07-0.08-0.17-0.13-0.28-0.16
			c-0.11-0.02-0.27-0.04-0.47-0.04V63.55z M52.76,61.01h0.4c0.23,0,0.43-0.05,0.58-0.15c0.15-0.1,0.23-0.26,0.23-0.47
			c0-0.41-0.24-0.61-0.73-0.61h-0.48V61.01z"/>
		<path class="st0" d="M55.78,63.45l0.08-0.8c0.35,0.19,0.69,0.29,1.01,0.29c0.21,0,0.39-0.05,0.55-0.15
			c0.16-0.1,0.23-0.25,0.23-0.45c0-0.2-0.07-0.34-0.2-0.43c-0.13-0.09-0.37-0.2-0.72-0.35c-0.35-0.15-0.61-0.32-0.78-0.5
			c-0.17-0.18-0.26-0.45-0.26-0.79c0-0.29,0.07-0.52,0.22-0.71c0.15-0.19,0.34-0.33,0.58-0.42c0.24-0.09,0.5-0.14,0.78-0.14
			c0.38,0,0.73,0.06,1.07,0.18l-0.08,0.74c-0.32-0.15-0.63-0.22-0.93-0.22c-0.19,0-0.36,0.04-0.5,0.13
			c-0.14,0.09-0.21,0.22-0.21,0.41c0,0.18,0.05,0.3,0.16,0.36s0.35,0.18,0.73,0.35c0.38,0.17,0.66,0.34,0.84,0.53
			c0.18,0.19,0.27,0.45,0.27,0.79c0,0.24-0.04,0.45-0.13,0.63c-0.09,0.18-0.21,0.32-0.37,0.44c-0.16,0.11-0.34,0.2-0.54,0.25
			c-0.2,0.05-0.42,0.08-0.65,0.08C56.55,63.65,56.18,63.59,55.78,63.45z"/>
	</g>
</g>
</svg>
