<?xml version="1.0" encoding="utf-8"?>
<!-- Generator: Adobe Illustrator 26.0.1, SVG Export Plug-In . SVG Version: 6.00 Build 0)  -->
<svg version="1.1" id="Слой_1" xmlns="http://www.w3.org/2000/svg" xmlns:xlink="http://www.w3.org/1999/xlink" x="0px" y="0px"
	 viewBox="0 0 141.73 141.73" style="enable-background:new 0 0 141.73 141.73;" xml:space="preserve">
<style type="text/css">
	.st0{fill:#FFFFFF;}
	.st1{font-family:'BastardusSans';}
	.st2{font-size:10.6599px;}
	.st3{fill:#1E1E1C;}
	.st4{fill:#E50C7E;stroke:#E50C7E;stroke-width:0.6565;stroke-miterlimit:10;}
</style>
<rect x="-4.94" y="-5.25" class="st0" width="151.95" height="151.95"/>
<text transform="matrix(1 0 0 1 105.2698 66.5792)" class="st0 st1 st2"> </text>
<g>
	<path class="st3" d="M127.51,57.5H14.22c-3.16,0-5.72,2.56-5.72,5.72v15.29c0,3.16,2.56,5.72,5.72,5.72h113.29
		c3.16,0,5.72-2.56,5.72-5.72V63.22C133.23,60.06,130.67,57.5,127.51,57.5z"/>
	<g>
		<path class="st4" d="M31.98,78.82h-2.85v-8.34c0.04-1.27,0.1-2.54,0.19-3.81h-0.08c-0.14,0.56-0.28,1.05-0.42,1.47l-3.59,10.68
			h-2.62L19.55,70c-0.38-1.1-0.7-2.21-0.97-3.33h-0.08c0.14,1.36,0.21,2.6,0.21,3.71v8.44h-2.71V64.71h4.5l2.56,7.41
			c0.4,1.19,0.7,2.35,0.91,3.47c0.12-0.59,0.24-1.11,0.36-1.54c0.11-0.44,0.24-0.88,0.39-1.32l2.71-8.01h4.57V78.82z"/>
		<path class="st4" d="M48.49,71.86c0,1.4-0.27,2.66-0.82,3.77c-0.55,1.11-1.34,1.97-2.38,2.59c-1.04,0.62-2.27,0.92-3.68,0.92
			c-1.45,0-2.7-0.31-3.75-0.93c-1.05-0.62-1.84-1.49-2.37-2.61c-0.53-1.12-0.8-2.4-0.8-3.85c0-1.45,0.27-2.72,0.81-3.83
			c0.54-1.11,1.33-1.97,2.37-2.59c1.04-0.62,2.29-0.92,3.74-0.92c1.1,0,2.09,0.18,2.95,0.55c0.87,0.37,1.59,0.88,2.17,1.55
			c0.58,0.67,1.02,1.45,1.31,2.35C48.34,69.76,48.49,70.76,48.49,71.86z M45.46,71.79c0-0.61-0.08-1.23-0.23-1.84
			c-0.15-0.61-0.39-1.17-0.71-1.68c-0.32-0.51-0.72-0.92-1.21-1.22c-0.49-0.31-1.06-0.46-1.72-0.46c-0.87,0-1.59,0.26-2.17,0.77
			c-0.58,0.52-1.01,1.18-1.29,1.98c-0.28,0.8-0.41,1.62-0.41,2.45c0,0.83,0.14,1.65,0.41,2.44c0.28,0.8,0.71,1.45,1.3,1.96
			c0.59,0.51,1.32,0.76,2.18,0.76c0.65,0,1.22-0.15,1.71-0.45c0.49-0.3,0.89-0.71,1.21-1.22c0.31-0.51,0.55-1.07,0.7-1.67
			C45.38,73.01,45.46,72.4,45.46,71.79z"/>
		<path class="st4" d="M61.41,75.97l0.1,2.49c-1.17,0.31-2.24,0.46-3.21,0.46c-1.1,0-2.12-0.14-3.06-0.43
			c-0.94-0.29-1.76-0.73-2.47-1.33c-0.71-0.6-1.26-1.33-1.64-2.22c-0.38-0.88-0.57-1.9-0.57-3.05c0-1.15,0.17-2.18,0.52-3.09
			c0.34-0.91,0.85-1.68,1.5-2.31c0.66-0.63,1.45-1.1,2.37-1.42c0.92-0.32,1.96-0.48,3.1-0.48c1.02,0,2.16,0.2,3.41,0.61l-0.23,2.42
			c-0.93-0.51-1.94-0.76-3.03-0.76c-0.92,0-1.74,0.2-2.44,0.59s-1.24,0.95-1.62,1.66c-0.38,0.71-0.56,1.53-0.56,2.45
			c0,0.96,0.2,1.82,0.59,2.58s0.96,1.36,1.69,1.78c0.73,0.42,1.58,0.63,2.56,0.63C59.35,76.56,60.35,76.36,61.41,75.97z"/>
		<path class="st4" d="M75.38,78.82h-3.68L67.14,73c-0.06-0.08-0.28-0.39-0.66-0.93c0.04,0.42,0.06,0.84,0.06,1.25v5.49h-2.85V64.71
			h2.85v5.01c0,0.39-0.02,0.76-0.06,1.13c0.41-0.55,0.65-0.87,0.74-0.97l4.4-5.16h3.45l-5.77,6.52L75.38,78.82z"/>
		<path class="st4" d="M86.05,64.73h2.75v8.54c0,1.29-0.2,2.37-0.6,3.23c-0.4,0.87-1.02,1.52-1.86,1.97
			c-0.84,0.44-1.92,0.67-3.23,0.67c-1.32,0-2.41-0.21-3.28-0.64c-0.86-0.42-1.51-1.07-1.93-1.95c-0.42-0.87-0.63-1.98-0.63-3.31
			v-8.52h2.85V73c0,1.17,0.22,2.11,0.67,2.81c0.45,0.71,1.23,1.06,2.36,1.06c0.77,0,1.37-0.19,1.8-0.56
			c0.43-0.37,0.72-0.85,0.87-1.44c0.16-0.59,0.23-1.25,0.23-2V64.73z"/>
		<path class="st4" d="M95.04,73.47v5.35h-2.85V64.71h3.87c0.8,0,1.52,0.06,2.16,0.19c0.64,0.12,1.23,0.37,1.75,0.72
			c0.53,0.38,0.95,0.87,1.25,1.47c0.3,0.6,0.45,1.24,0.45,1.92c0,0.79-0.14,1.47-0.42,2.05c-0.28,0.58-0.67,1.05-1.16,1.41
			c-0.49,0.36-1.06,0.63-1.72,0.8c-0.66,0.17-1.36,0.25-2.11,0.25C95.99,73.51,95.58,73.5,95.04,73.47z M95.04,71.29
			c0.5,0,0.95-0.02,1.36-0.06c0.41-0.04,0.78-0.13,1.11-0.27c0.33-0.14,0.6-0.36,0.81-0.67s0.31-0.72,0.31-1.22
			c0-0.68-0.17-1.18-0.52-1.49c-0.34-0.31-0.76-0.51-1.23-0.58c-0.48-0.07-1.09-0.12-1.84-0.13V71.29z"/>
	</g>
	<g>
		<path class="st4" d="M112.45,78.82l0.26-2.53c1.12,0.61,2.18,0.91,3.2,0.91c0.65,0,1.23-0.16,1.72-0.49
			c0.49-0.32,0.74-0.8,0.74-1.43c0-0.63-0.21-1.08-0.63-1.35s-1.17-0.64-2.27-1.11c-1.1-0.47-1.92-1-2.47-1.58
			c-0.55-0.58-0.82-1.41-0.82-2.49c0-0.9,0.23-1.65,0.69-2.26c0.46-0.6,1.07-1.05,1.82-1.33c0.76-0.29,1.58-0.43,2.47-0.43
			c1.19,0,2.32,0.19,3.37,0.56l-0.24,2.32c-1.03-0.47-2-0.7-2.92-0.7c-0.61,0-1.13,0.14-1.59,0.41c-0.45,0.27-0.68,0.7-0.68,1.29
			c0,0.56,0.17,0.94,0.51,1.15c0.34,0.21,1.1,0.57,2.3,1.1s2.07,1.09,2.64,1.68c0.56,0.6,0.85,1.43,0.85,2.5
			c0,0.76-0.14,1.43-0.42,1.98c-0.28,0.56-0.67,1.02-1.17,1.38s-1.07,0.63-1.72,0.8c-0.64,0.17-1.33,0.26-2.05,0.26
			C114.88,79.46,113.69,79.24,112.45,78.82z"/>
		<path class="st4" d="M126.68,76.37v2.77h-2.88v-2.77H126.68z"/>
	</g>
</g>
</svg>
