<?xml version="1.0" encoding="utf-8"?>
<!-- Generator: Adobe Illustrator 26.0.1, SVG Export Plug-In . SVG Version: 6.00 Build 0)  -->
<svg version="1.1" id="Слой_1" xmlns="http://www.w3.org/2000/svg" xmlns:xlink="http://www.w3.org/1999/xlink" x="0px" y="0px"
	 viewBox="0 0 141.73 141.73" style="enable-background:new 0 0 141.73 141.73;" xml:space="preserve">
<style type="text/css">
	.st0{fill:#FFFFFF;}
	.st1{font-family:'BastardusSans';}
	.st2{font-size:10.6599px;}
	.st3{fill:#1E1E1C;}
	.st4{fill:#1B9DD9;stroke:#1B9DD9;stroke-width:0.6286;stroke-miterlimit:10;}
</style>
<rect x="-4.94" y="-5.25" class="st0" width="151.95" height="151.95"/>
<text transform="matrix(1 0 0 1 105.2698 66.5792)" class="st0 st1 st2"> </text>
<g>
	<path class="st3" d="M127.51,57.5H14.22c-3.16,0-5.72,2.56-5.72,5.72v15.29c0,3.16,2.56,5.72,5.72,5.72h113.29
		c3.16,0,5.72-2.56,5.72-5.72V63.22C133.23,60.06,130.67,57.5,127.51,57.5z"/>
	<g>
		<path class="st4" d="M41.53,74.85l0.16-1.6c0.71,0.38,1.38,0.58,2.03,0.58c0.41,0,0.78-0.1,1.09-0.31
			c0.31-0.21,0.47-0.51,0.47-0.9c0-0.4-0.13-0.69-0.4-0.86c-0.26-0.17-0.74-0.4-1.44-0.7s-1.22-0.63-1.57-1
			c-0.35-0.37-0.52-0.9-0.52-1.58c0-0.57,0.15-1.05,0.44-1.43c0.29-0.38,0.68-0.66,1.15-0.85c0.48-0.18,1-0.27,1.56-0.27
			c0.76,0,1.47,0.12,2.14,0.35l-0.15,1.47c-0.65-0.3-1.27-0.45-1.85-0.45c-0.38,0-0.72,0.09-1.01,0.26
			c-0.29,0.17-0.43,0.44-0.43,0.82c0,0.35,0.11,0.6,0.32,0.73c0.21,0.13,0.7,0.36,1.46,0.7s1.32,0.69,1.67,1.07
			c0.36,0.38,0.54,0.91,0.54,1.59c0,0.48-0.09,0.9-0.27,1.26c-0.18,0.35-0.43,0.65-0.74,0.87c-0.32,0.23-0.68,0.4-1.09,0.51
			c-0.41,0.11-0.84,0.16-1.3,0.16C43.08,75.26,42.32,75.12,41.53,74.85z"/>
		<path class="st4" d="M52.33,75.06h-1.81v-7.47h-2.55v-1.47h6.94v1.47h-2.57V75.06z"/>
		<path class="st4" d="M58.01,75.06H56.2v-8.95h1.81V75.06z"/>
		<path class="st4" d="M66.71,73.25l0.07,1.58c-0.74,0.2-1.42,0.29-2.04,0.29c-0.7,0-1.35-0.09-1.94-0.28
			c-0.59-0.18-1.12-0.46-1.57-0.84c-0.45-0.38-0.8-0.85-1.04-1.41c-0.24-0.56-0.36-1.2-0.36-1.93c0-0.73,0.11-1.38,0.33-1.96
			c0.22-0.58,0.54-1.06,0.95-1.46c0.42-0.4,0.92-0.7,1.5-0.9c0.58-0.2,1.24-0.3,1.97-0.3c0.65,0,1.37,0.13,2.16,0.39l-0.14,1.53
			c-0.59-0.32-1.23-0.48-1.92-0.48c-0.59,0-1.1,0.13-1.55,0.38c-0.45,0.25-0.79,0.6-1.03,1.05c-0.24,0.45-0.36,0.97-0.36,1.55
			c0,0.61,0.13,1.15,0.38,1.64c0.25,0.48,0.61,0.86,1.07,1.13c0.46,0.27,1,0.4,1.62,0.4C65.41,73.62,66.04,73.5,66.71,73.25z"/>
		<path class="st4" d="M75.58,75.06h-2.33l-2.89-3.69c-0.04-0.05-0.18-0.24-0.42-0.59c0.03,0.27,0.04,0.53,0.04,0.79v3.49h-1.81
			v-8.95h1.81v3.18c0,0.24-0.01,0.48-0.04,0.71c0.26-0.35,0.41-0.55,0.47-0.62l2.79-3.28h2.19l-3.66,4.13L75.58,75.06z"/>
		<path class="st4" d="M82.13,73.59v1.46h-5.35v-8.95h5.3v1.47h-3.49v2.16h3.2v1.46h-3.2v2.39H82.13z"/>
		<path class="st4" d="M85.8,75.06h-1.83v-8.95h2.94c0.59,0,1.13,0.06,1.61,0.19c0.48,0.13,0.87,0.37,1.17,0.71
			c0.3,0.35,0.45,0.83,0.45,1.45c0,0.57-0.16,1.05-0.48,1.42c-0.32,0.37-0.77,0.6-1.33,0.69c0.29,0.11,0.51,0.27,0.66,0.48
			c0.14,0.21,0.29,0.5,0.45,0.88l1.29,3.12h-2.01l-0.98-2.54c-0.14-0.37-0.28-0.63-0.43-0.79c-0.15-0.16-0.33-0.26-0.55-0.31
			c-0.22-0.05-0.53-0.08-0.94-0.08V75.06z M85.79,69.96h0.81c0.47,0,0.85-0.1,1.16-0.29c0.3-0.2,0.46-0.51,0.46-0.94
			c0-0.81-0.49-1.22-1.46-1.22h-0.96V69.96z"/>
		<path class="st4" d="M91.84,74.85l0.16-1.6c0.71,0.38,1.38,0.58,2.03,0.58c0.41,0,0.78-0.1,1.09-0.31
			c0.31-0.21,0.47-0.51,0.47-0.9c0-0.4-0.13-0.69-0.4-0.86c-0.26-0.17-0.74-0.4-1.44-0.7c-0.7-0.3-1.22-0.63-1.57-1
			c-0.35-0.37-0.52-0.9-0.52-1.58c0-0.57,0.15-1.05,0.44-1.43c0.29-0.38,0.68-0.66,1.15-0.85c0.48-0.18,1-0.27,1.56-0.27
			c0.76,0,1.47,0.12,2.14,0.35l-0.15,1.47c-0.65-0.3-1.27-0.45-1.85-0.45c-0.38,0-0.72,0.09-1.01,0.26
			c-0.29,0.17-0.43,0.44-0.43,0.82c0,0.35,0.11,0.6,0.32,0.73c0.21,0.13,0.7,0.36,1.46,0.7s1.32,0.69,1.67,1.07
			c0.36,0.38,0.54,0.91,0.54,1.59c0,0.48-0.09,0.9-0.27,1.26c-0.18,0.35-0.43,0.65-0.74,0.87c-0.32,0.23-0.68,0.4-1.09,0.51
			c-0.41,0.11-0.84,0.16-1.3,0.16C93.38,75.26,92.62,75.12,91.84,74.85z"/>
	</g>
</g>
</svg>
