<?xml version="1.0" encoding="utf-8"?>
<!-- Generator: Adobe Illustrator 26.0.1, SVG Export Plug-In . SVG Version: 6.00 Build 0)  -->
<svg version="1.1" id="Слой_1" xmlns="http://www.w3.org/2000/svg" xmlns:xlink="http://www.w3.org/1999/xlink" x="0px" y="0px"
	 viewBox="0 0 595.28 508.62" style="enable-background:new 0 0 595.28 508.62;" xml:space="preserve">
<style type="text/css">
	.st0{fill:#FFFFFF;stroke:#FFFFFF;stroke-width:1.3103;stroke-miterlimit:10;}
	.st1{fill:#FFFFFF;stroke:#FFFFFF;stroke-miterlimit:10;}
</style>
<g>
	<path class="st0" d="M125.79,250.59c0,9.46-18.36,15.12-26.13,15.12c-1.06,2.47-1.7,2.75-4.24,2.75c-0.71,0-2.33-0.07-2.33-1.13
		c0-1.98,0.28-3.96,0.42-6.07c0.21-2.9,0.49-5.79,0.85-8.69c1.13-10.1,2.68-20.13,4.87-30.02c-2.12,0.14-4.24,0.28-6.29,0.57
		c-0.71,0.07-1.48,0.28-2.19,0.28c-0.64,0-1.06-0.21-1.06-0.92c0-1.41,2.75-1.77,2.75-1.77c2.33-0.35,4.94-0.71,7.42-0.85
		c0.35-1.62,0.78-3.25,1.27-4.87c0.56-1.77,1.62-2.83,3.32-3.53c0.85-0.35,1.69-0.56,2.61-0.56c0.35,0,1.2,0,1.2,0.56
		c0,0.21-0.07,0.35-0.14,0.49c-0.92,2.19-1.34,5.37-1.84,7.7c4.31,0,19.56,0.42,19.56,6.57c0,5.58-11.65,11.94-16.46,13.14
		C114.48,240.56,125.79,244.02,125.79,250.59z M100.22,258.92c0,0.92,0,1.84,0.07,2.75c4.8-0.42,21.26-4.03,21.26-10.17
		c0-6.85-13.99-9.68-19.21-10.52C101.42,246.92,100.22,252.92,100.22,258.92z M105.66,222.41c-1.06,5.09-1.84,10.24-2.68,15.33
		c4.45-1.06,18.72-5.01,18.72-10.67C121.69,222.9,108.62,222.41,105.66,222.41z"/>
	<path class="st0" d="M138.78,263.59c3.81,0,9.32-8.12,11.44-11.44c0.42-0.64,0.99-1.48,1.77-1.48c0.92,0,0.92,0.85,0.92,1.55
		c0,0.92-1.34,2.83-1.91,3.6c-2.68,3.81-8.69,11.3-13.7,11.3c-5.58,0-6.43-7.98-6.43-12.08c0-2.61,0.71-6.22,1.48-8.69
		c0.85-2.54,2.12-4.52,5.09-4.52c1.06,0,1.62,0.42,1.62,1.55c0,1.91-1.62,5.37-2.12,7.49c-0.42,2.05-0.64,4.17-0.64,6.29
		C136.31,258.78,136.38,263.59,138.78,263.59z M141.61,233.71c0,1.84-1.48,3.74-3.39,3.74c-1.48,0-2.4-1.27-2.4-2.68
		c0-1.77,1.41-3.74,3.32-3.74C140.62,231.02,141.61,232.3,141.61,233.71z"/>
	<path class="st0" d="M149.45,255.11c0-7.35,4.66-17.87,13.21-17.87c3.53,0,5.72,1.62,5.72,5.37c0,2.19-0.57,6-3.46,6
		c-0.42,0-0.78-0.21-0.78-0.71c0-1.06,1.27-2.75,1.27-4.8c0-1.27-0.07-2.75-1.7-2.75c-5.37,0-8.33,11.37-8.33,15.54
		c0,3.6,1.41,7.35,5.65,7.35c6.29,0,11.3-4.87,14.34-9.96c0.42-0.71,1.2-1.84,2.12-1.84c0.64,0,1.13,0.49,1.13,1.13
		c0,0.49-0.28,0.99-0.56,1.48c-3.96,7.13-11.16,13.07-19.5,13.07C152.06,267.12,149.45,260.69,149.45,255.11z"/>
	<path class="st0" d="M176.36,287.18c0-9.46,11.23-18.79,18.51-23.59c0.07-1.34,0.07-2.68,0.07-4.03c0-3.67-0.07-7.27-0.21-10.95
		c-2.33,3.89-11.65,14.55-16.32,14.55c-3.18,0-3.81-3.11-3.81-5.65c0-4.24,1.2-8.69,2.47-12.71c0.28-0.92,0.49-1.84,0.92-2.68
		c0.56-1.13,1.34-1.98,2.68-1.98c1.55,0,3.04,1.27,3.04,2.9c0,1.2-1.06,3.11-1.48,4.24c-0.99,2.47-2.97,8.55-2.97,11.09
		c0,0.42,0,1.48,0.71,1.48c1.13,0,4.1-2.97,4.94-3.81c3.81-3.88,6.92-8.48,10.31-12.78c0.64-0.78,1.41-1.98,2.54-1.98
		c0.49,0,0.99,0.21,1.41,0.49c1.13,0.78,1.13,6.15,1.13,7.84c0,12.64-0.42,27.26-7.35,38c-2.33,3.6-6.15,7.2-10.67,7.2
		C177.98,294.81,176.36,290.92,176.36,287.18z M179.47,287.32c0,1.77,0.49,4.52,2.75,4.52s4.45-2.61,5.72-4.24
		c3.67-4.94,5.93-14.83,6.57-20.98C188.51,271.43,179.47,278.98,179.47,287.32z"/>
	<path class="st0" d="M207.65,255.11c0-7.35,4.66-17.87,13.21-17.87c3.53,0,5.72,1.62,5.72,5.37c0,2.19-0.57,6-3.46,6
		c-0.42,0-0.78-0.21-0.78-0.71c0-1.06,1.27-2.75,1.27-4.8c0-1.27-0.07-2.75-1.7-2.75c-5.37,0-8.33,11.37-8.33,15.54
		c0,3.6,1.41,7.35,5.65,7.35c6.29,0,11.3-4.87,14.34-9.96c0.42-0.71,1.2-1.84,2.12-1.84c0.64,0,1.13,0.49,1.13,1.13
		c0,0.49-0.28,0.99-0.56,1.48c-3.96,7.13-11.16,13.07-19.5,13.07C210.26,267.12,207.65,260.69,207.65,255.11z"/>
	<path class="st0" d="M233.29,246c0-9.82,1.48-19.71,5.37-28.75c1.48-3.39,5.51-10.38,9.75-10.38c3.32,0,4.24,3.67,4.24,6.36
		c0,8.83-4.59,21.4-8.83,29.1c-0.99,1.91-2.26,3.6-3.39,5.44c-0.35,0.56-0.99,1.41-1.2,2.05c-0.28,0.78-0.28,2.26-0.28,3.11
		c0,2.75,0.57,11.16,4.45,11.16c3.46,0,8.26-5.86,10.03-8.62l1.84-2.9c0.35-0.56,0.78-0.99,1.48-0.99c0.78,0,0.99,0.64,0.99,1.27
		c0,0.85-0.49,1.7-0.99,2.47l-0.07,0.07c-2.75,4.59-8.9,12.93-14.76,12.93C234.07,268.32,233.29,251.51,233.29,246z M242.75,219.94
		c-2.05,6.78-4.03,14.55-4.03,21.33c0,0.71,0,1.34,0.07,2.05c4.59-7.7,10.88-21.47,10.88-30.44c0-0.64,0-2.61-1.06-2.61
		C245.65,210.26,243.53,217.32,242.75,219.94z"/>
	<path class="st0" d="M253.99,256.88c0-6.36,5.16-19.85,12.78-19.85c2.54,0,3.96,1.77,3.96,4.24c0,4.73-6.64,12.22-10.95,13.77
		c-0.21,0.99-0.35,1.98-0.35,2.97c0,3.18,1.27,5.16,4.59,5.16c5.93,0,10.67-5.09,13.49-9.82c0.42-0.71,1.13-1.84,2.12-1.84
		c0.42,0,0.99,0.28,0.99,0.78c0,0.92-0.21,1.34-0.64,2.12c-3.67,6.43-10.45,12.08-18.15,12.08
		C256.25,266.48,253.99,261.89,253.99,256.88z M259.99,252.36c3.04-1.84,7.63-6.64,7.63-10.38c0-0.78-0.28-1.62-1.2-1.62
		C263.59,240.35,260.41,249.88,259.99,252.36z"/>
	<path class="st0" d="M328.36,218.95c0-1.41-2.54-1.41-3.46-1.41c-1.62,0-3.25,0.07-4.8,0.35c-4.45,0.78-11.94,4.45-11.94,9.75
		c0,8.76,19.71,15.54,19.71,26.63c0,10.88-17.09,12.93-25.15,12.93c-1.27,0-2.47-0.07-3.74-0.21c-1.2-0.14-5.3-0.21-5.3-2.05
		c0-1.55,0.99-1.55,2.26-1.55c2.33,0,4.59,0.92,6.92,0.92c5.08,0,19.92-1.55,19.92-8.55c0-7.91-21.26-14.55-21.26-27.26
		c0-11.16,16.6-13.28,24.93-13.28c2.61,0,7.63,0.56,7.63,4.1c0,1.77-0.85,3.53-2.12,4.73c-1.34,1.27-4.52,3.25-6.43,3.25
		c-1.06,0-1.84-0.71-1.84-1.77C323.7,223.18,328.36,221.14,328.36,218.95z"/>
	<path class="st0" d="M343.41,244.8c-0.85,1.48-2.97,4.31-2.97,4.31c-0.07,0.35-0.14,1.2-0.14,1.55c0,2.83,0.64,13.42,4.45,13.42
		c4.38,0,9.54-7.49,11.66-10.88c0.35-0.64,1.06-1.62,1.84-1.62c0.57,0,0.99,0.49,0.99,1.06c0,1.06-0.57,1.98-1.13,2.9
		c-2.68,4.52-8.97,12.85-14.69,12.85c-7.35,0-8.76-14.97-8.76-20.27c0-4.59,0.28-9.32,1.2-13.84c-0.49,0.14-0.99,0.21-1.48,0.21
		c-1.13,0-1.7-0.56-1.7-1.69c0-1.91,2.12-2.19,3.6-2.33c1.55-5.09,5.65-19.14,12.29-19.14c2.97,0,3.18,4.24,3.18,6.36
		c0,3.67-0.49,7.56-1.55,11.09c1.62-0.21,3.18-0.56,4.8-0.56c0.64,0,0.99,0.21,0.99,0.92c0,0.71-0.35,0.99-0.92,1.34
		c-0.71,0.42-4.73,1.41-5.79,1.62C348.14,236.39,345.74,240.98,343.41,244.8z M339.74,245.01c2.12-2.68,5.3-8.83,6.22-12.15
		c-1.7,0.35-3.39,0.35-5.01,0.85C340.09,237.38,340.02,241.27,339.74,245.01z M341.36,229.89c1.91-0.28,3.88-0.35,5.79-0.78
		c1.13-3.6,1.98-8.41,1.98-12.15c0-0.42,0-2.12-0.71-2.12C345.17,214.85,341.71,227.07,341.36,229.89z"/>
	<path class="st0" d="M364.25,263.59c3.81,0,9.32-8.12,11.44-11.44c0.42-0.64,0.99-1.48,1.77-1.48c0.92,0,0.92,0.85,0.92,1.55
		c0,0.92-1.34,2.83-1.91,3.6c-2.68,3.81-8.69,11.3-13.7,11.3c-5.58,0-6.43-7.98-6.43-12.08c0-2.61,0.71-6.22,1.48-8.69
		c0.85-2.54,2.12-4.52,5.08-4.52c1.06,0,1.62,0.42,1.62,1.55c0,1.91-1.62,5.37-2.12,7.49c-0.42,2.05-0.64,4.17-0.64,6.29
		C361.77,258.78,361.84,263.59,364.25,263.59z M367.07,233.71c0,1.84-1.48,3.74-3.39,3.74c-1.48,0-2.4-1.27-2.4-2.68
		c0-1.77,1.41-3.74,3.32-3.74C366.08,231.02,367.07,232.3,367.07,233.71z"/>
	<path class="st0" d="M374.91,255.11c0-7.35,4.66-17.87,13.21-17.87c3.53,0,5.72,1.62,5.72,5.37c0,2.19-0.57,6-3.46,6
		c-0.42,0-0.78-0.21-0.78-0.71c0-1.06,1.27-2.75,1.27-4.8c0-1.27-0.07-2.75-1.7-2.75c-5.37,0-8.33,11.37-8.33,15.54
		c0,3.6,1.41,7.35,5.65,7.35c6.29,0,11.3-4.87,14.34-9.96c0.42-0.71,1.2-1.84,2.12-1.84c0.64,0,1.13,0.49,1.13,1.13
		c0,0.49-0.28,0.99-0.56,1.48c-3.96,7.13-11.16,13.07-19.5,13.07C377.53,267.12,374.91,260.69,374.91,255.11z"/>
	<path class="st0" d="M405.78,269.8c0,1.27-0.07,3.32-1.84,3.32c-1.2,0-1.62-0.92-1.84-1.98c-0.64-3.39-0.64-8.12-0.64-12.86
		c0-8.62,0.78-17.23,2.12-25.78c0.99-6.36,2.05-12.86,3.96-19.07c0.85-2.83,2.54-5.37,5.79-5.37c1.2,0,1.77,0.71,1.77,1.91
		c0,1.06-0.35,2.12-0.71,3.11c-0.99,2.75-1.7,5.65-2.97,10.81c-1.91,8.05-3.39,16.17-4.31,24.37c4.1-4.31,8.55-8.19,12.86-12.29
		c0.64-0.56,1.62-1.7,2.54-1.7c0.78,0,1.48,0.85,1.48,1.62c0,1.06-1.13,1.98-1.91,2.61c-4.87,3.96-9.39,8.26-13.92,12.57
		c1.91,0.71,3.6,1.77,5.37,2.75c2.9,1.62,5.86,3.18,8.55,5.09c0.99,0.71,2.19,1.84,2.19,3.18c0,0.85-0.85,0.99-1.48,0.99
		c-0.78,0-1.48-0.35-2.19-0.71l-9.54-5.01c-1.34-0.71-2.61-1.41-4.03-1.91C406.56,258.36,405.78,265.07,405.78,269.8z"/>
	<path class="st0" d="M428.03,256.88c0-6.36,5.16-19.85,12.78-19.85c2.54,0,3.96,1.77,3.96,4.24c0,4.73-6.64,12.22-10.95,13.77
		c-0.21,0.99-0.35,1.98-0.35,2.97c0,3.18,1.27,5.16,4.59,5.16c5.93,0,10.67-5.09,13.49-9.82c0.42-0.71,1.13-1.84,2.12-1.84
		c0.42,0,0.99,0.28,0.99,0.78c0,0.92-0.21,1.34-0.64,2.12c-3.67,6.43-10.45,12.08-18.15,12.08
		C430.29,266.48,428.03,261.89,428.03,256.88z M434.03,252.36c3.04-1.84,7.63-6.64,7.63-10.38c0-0.78-0.28-1.62-1.2-1.62
		C437.63,240.35,434.46,249.88,434.03,252.36z"/>
	<path class="st0" d="M457.77,246.14c-1.48,4.1-3.67,9.46-6.78,12.64c-0.49,0.49-1.13,1.06-1.91,1.06c-0.56,0-0.92-0.35-0.92-0.92
		c0-0.56,0.28-1.06,0.64-1.55c2.68-3.88,5.51-7.98,6.07-12.78c-1.27-1.7-1.84-3.81-1.84-5.93c0-2.19,1.34-7.91,4.17-7.91
		c1.98,0,2.33,4.1,2.33,5.51c0,1.13-0.07,2.26-0.21,3.39c2.19,3.32,8.41,3.6,8.41,9.89c0,0.92-0.14,1.84-0.35,2.75
		c-0.78,3.32-1.41,6.57-1.41,9.96c0,0.92,0,2.61,1.34,2.61c3.25,0,9.04-7.35,10.88-10.1c0.42-0.64,1.06-1.55,1.84-1.55
		c0.85,0,0.99,0.78,0.99,1.48c0,0.56-0.28,1.06-0.57,1.48c-2.26,3.67-9.39,12.01-13.92,12.01c-4.66,0-4.94-6.57-4.94-9.89
		c0-2.61,0.35-5.16,0.35-7.77C461.93,248.19,459.81,246.78,457.77,246.14z"/>
	<path class="st0" d="M495.55,259.35c0,1.91-0.49,3.81-1.62,5.44c3.25,0,9.89-7.28,11.72-10.03c0.42-0.64,1.06-1.55,1.84-1.55
		c0.85,0,1.06,0.71,1.06,1.41c0,0.49-0.42,1.06-0.64,1.48c-5.3,8.33-11.37,13.21-21.61,13.21c-2.68,0-6.29-0.35-8.33-2.33
		c-0.42-0.42-0.78-0.92-0.78-1.55c0-0.71,0.49-1.06,1.13-1.06c0.57,0,1.41,0.64,1.27,0.49c1.48,1.13,3.18,1.34,5.01,1.34
		c3.74,0,5.72-2.54,5.72-6.15c0-4.24-2.61-10.24-4.94-13.7c-1.34,3.81-4.1,9.61-6.92,12.43c-0.42,0.42-1.13,1.13-1.84,1.13
		c-0.56,0-0.99-0.42-0.99-0.99c0-0.71,0.42-1.27,0.85-1.84c3.18-3.96,5.65-8.62,7.2-13.49c-0.42-1.2-0.64-2.47-0.64-3.74
		c0-2.75,1.84-8.26,5.23-8.26c1.77,0,2.26,2.4,2.26,3.81c0,2.33-0.78,4.8-1.62,6.99C491.18,247.83,495.55,253.27,495.55,259.35z"/>
</g>
<g>
	<path class="st1" d="M261.4,308.5c-2.27,0-4.08-0.8-5.43-2.39s-2.02-3.73-2.02-6.43c0-2.64,0.67-4.73,2.02-6.28
		c1.35-1.55,3.16-2.33,5.43-2.33c1.72,0,3.22,0.54,4.48,1.63c1.27,1.08,1.99,2.43,2.17,4.04h-0.93c-0.18-1.36-0.82-2.5-1.91-3.42
		s-2.36-1.38-3.82-1.38c-1.99,0-3.57,0.7-4.74,2.09c-1.17,1.39-1.76,3.28-1.76,5.66c0,2.43,0.59,4.36,1.77,5.79
		c1.18,1.44,2.76,2.15,4.74,2.15c1.5,0,2.79-0.41,3.85-1.24c1.07-0.83,1.69-1.91,1.87-3.26h0.93c-0.2,1.6-0.91,2.9-2.13,3.88
		C264.7,308.01,263.19,308.5,261.4,308.5z"/>
	<path class="st1" d="M271.15,291.32v11.02c0,1.62,0.48,2.91,1.46,3.86s2.28,1.43,3.94,1.43c1.66,0,2.97-0.48,3.94-1.43
		s1.46-2.24,1.46-3.86v-11.02h0.93v11.05c0,1.85-0.57,3.34-1.71,4.45s-2.68,1.67-4.62,1.67c-1.94,0-3.48-0.56-4.62-1.67
		c-1.14-1.11-1.71-2.6-1.71-4.45v-11.05H271.15z"/>
	<path class="st1" d="M285.05,303.74h0.93c0.07,1.15,0.59,2.09,1.57,2.82s2.2,1.09,3.67,1.09c1.43,0,2.6-0.36,3.51-1.09
		c0.91-0.72,1.37-1.64,1.37-2.75c0-0.88-0.32-1.6-0.95-2.15c-0.63-0.55-1.66-1-3.09-1.36l-2.01-0.49c-1.57-0.4-2.72-0.93-3.46-1.6
		s-1.1-1.53-1.1-2.59c0-1.31,0.54-2.39,1.61-3.25c1.07-0.86,2.39-1.29,3.94-1.29c1.59,0,2.92,0.42,3.99,1.24s1.63,1.87,1.69,3.12
		h-0.93c-0.06-1.02-0.54-1.86-1.44-2.52c-0.9-0.66-2.01-0.99-3.34-0.99c-1.29,0-2.38,0.35-3.26,1.04c-0.88,0.69-1.32,1.57-1.32,2.62
		c0,0.84,0.32,1.52,0.95,2.04c0.63,0.52,1.64,0.96,3.02,1.3l1.89,0.48c1.65,0.41,2.85,0.95,3.61,1.63s1.13,1.57,1.13,2.69
		c0,1.41-0.54,2.55-1.63,3.44s-2.51,1.33-4.27,1.33c-1.74,0-3.17-0.44-4.3-1.33S285.12,305.14,285.05,303.74z"/>
	<path class="st1" d="M304.61,308.25h-0.94v-16.08h-5.96v-0.86h12.86v0.86h-5.96V308.25z"/>
	<path class="st1" d="M312.42,293.43c1.36-1.57,3.2-2.36,5.5-2.36c2.31,0,4.14,0.79,5.5,2.36c1.36,1.57,2.04,3.69,2.04,6.35
		c0,2.68-0.68,4.8-2.04,6.37c-1.36,1.57-3.19,2.35-5.51,2.35c-2.32,0-4.15-0.78-5.51-2.35c-1.36-1.57-2.04-3.69-2.04-6.37
		C310.38,297.12,311.06,295,312.42,293.43z M322.73,294.06c-1.19-1.41-2.79-2.12-4.81-2.12s-3.61,0.71-4.81,2.12
		c-1.19,1.41-1.79,3.32-1.79,5.72c0,2.39,0.6,4.3,1.79,5.72c1.19,1.42,2.79,2.13,4.81,2.13s3.61-0.71,4.81-2.12s1.79-3.32,1.79-5.73
		C324.52,297.38,323.93,295.47,322.73,294.06z"/>
	<path class="st1" d="M343.58,291.32v16.93h-0.89v-15.01h-0.05l-6.52,14.97h-0.89l-6.52-14.97h-0.05v15.01h-0.89v-16.93h1.03
		l6.84,15.73h0.07l6.82-15.73H343.58z"/>
</g>
</svg>
