<?xml version="1.0" encoding="utf-8"?>
<!-- Generator: Adobe Illustrator 25.2.3, SVG Export Plug-In . SVG Version: 6.00 Build 0)  -->
<svg version="1.1" id="Слой_1" xmlns="http://www.w3.org/2000/svg" xmlns:xlink="http://www.w3.org/1999/xlink" x="0px" y="0px"
	 viewBox="0 0 154 121" style="enable-background:new 0 0 154 121;" xml:space="preserve">
<style type="text/css">
	.st0{fill:#00A099;}
	.st1{fill:#1D70B7;}
	.st2{fill:#F29100;}
	.st3{fill:#9C9B9B;}
	.st4{fill:#E5332A;}
	.st5{fill:none;}
</style>
<polygon class="st0" points="31.63,42.82 31.63,72.39 31.17,72.39 31.17,42.01 "/>
<polygon class="st0" points="54.58,-0.09 42.32,24.15 31.17,2.11 31.17,-0.09 "/>
<polygon class="st0" points="61.88,27.01 61.88,72.39 52.78,72.39 52.78,42.82 "/>
<polygon class="st1" points="31.17,-0.09 31.17,2.11 30.05,-0.09 "/>
<polygon class="st1" points="31.17,42.01 31.17,72.39 0.46,72.39 0.46,-0.09 7.16,-0.09 "/>
<path class="st2" d="M126.06,24.15c0,2.74-0.83,4.95-2.48,6.64c-0.09,0.09-0.19,0.19-0.28,0.28V17.29c0.1,0.09,0.19,0.18,0.28,0.28
	C125.23,19.3,126.06,21.49,126.06,24.15z"/>
<path class="st2" d="M154-0.09v72.48h-30.71V51.35c2.58-0.3,5.01-0.91,7.3-1.83c3.38-1.36,6.33-3.27,8.85-5.71
	c2.52-2.44,4.48-5.33,5.88-8.67c1.4-3.34,2.1-6.98,2.1-10.93c0-3.95-0.7-7.59-2.1-10.93c-1.4-3.34-3.36-6.21-5.88-8.62
	c-0.13-0.13-0.26-0.25-0.4-0.37c-0.06-0.06-0.12-0.11-0.18-0.16c-0.02-0.02-0.03-0.03-0.05-0.04c-0.08-0.07-0.15-0.14-0.23-0.2
	c-0.08-0.07-0.16-0.14-0.24-0.21c-0.28-0.24-0.57-0.48-0.87-0.71c-0.14-0.11-0.29-0.23-0.44-0.33c-0.01-0.01-0.03-0.02-0.04-0.03
	c-0.03-0.03-0.07-0.05-0.1-0.07c-0.01-0.01-0.02-0.02-0.03-0.02c-0.14-0.11-0.29-0.21-0.44-0.32c-0.18-0.13-0.36-0.25-0.54-0.37
	c-0.17-0.11-0.34-0.23-0.52-0.34c-0.01-0.01-0.02-0.01-0.03-0.02c-0.18-0.12-0.37-0.23-0.55-0.34c-0.01,0-0.01-0.01-0.02-0.01
	c-0.01,0-0.01-0.01-0.02-0.01c-0.16-0.09-0.32-0.19-0.48-0.28c-0.04-0.02-0.08-0.04-0.11-0.06c-0.03-0.02-0.06-0.04-0.1-0.06
	c-0.14-0.08-0.28-0.16-0.43-0.24c0,0,0,0-0.01,0c-0.02-0.01-0.04-0.02-0.06-0.03c-0.18-0.1-0.35-0.19-0.53-0.28
	c-0.14-0.07-0.28-0.14-0.42-0.21H154z"/>
<path class="st3" d="M123.29,17.29v13.77c-1.62,1.51-3.72,2.26-6.3,2.26h-8.85V14.98h8.85C119.57,14.98,121.67,15.75,123.29,17.29z"
	/>
<path class="st3" d="M123.29,51.35v21.04h-15.15V51.56h11.33C120.78,51.56,122.05,51.49,123.29,51.35z"/>
<polygon class="st4" points="87.31,-0.09 87.31,72.39 61.88,72.39 61.88,27.01 77.46,-0.09 "/>
<line class="st5" x1="154" y1="-0.09" x2="132.62" y2="-0.09"/>
<line class="st5" x1="7.16" y1="-0.09" x2="0.46" y2="-0.09"/>
<line class="st5" x1="87.31" y1="-0.09" x2="77.46" y2="-0.09"/>
<polyline class="st5" points="54.58,-0.09 31.17,-0.09 30.05,-0.09 "/>
<g>
	<path class="st3" d="M18.32,108.52c-1.14-1.17-2.51-2.06-4.1-2.65c-1.6-0.59-3.12-1.18-4.57-1.78c-1.45-0.59-2.17-1.33-2.17-2.23
		c0-1.04,0.53-1.77,1.59-2.18c1.06-0.42,2.21-0.63,3.44-0.63c1.7,0,3.66,0.36,5.88,1.07L18.88,95H5.29
		c-1.25,0.56-2.31,1.32-3.19,2.28c-1.16,1.26-1.74,2.87-1.74,4.83c0,2.06,0.56,3.66,1.67,4.81c1.11,1.15,2.43,2.04,3.95,2.68
		c1.52,0.64,3.04,1.28,4.55,1.94c1.51,0.65,2.27,1.45,2.27,2.38c0,1.07-0.53,1.87-1.59,2.38c-1.06,0.51-2.18,0.77-3.36,0.77
		c-2.15,0-4.5-0.66-7.06-1.97l-0.31,5.71H15.6c1.08-0.58,2-1.33,2.77-2.26c1.1-1.33,1.65-2.99,1.65-4.97
		C20.03,111.37,19.46,109.69,18.32,108.52z"/>
	<path class="st3" d="M41.3,115.95c-0.97,0.26-1.79,0.38-2.46,0.38c-1.82,0-2.97-0.56-3.43-1.68c-0.46-1.12-0.7-2.76-0.7-4.91V99.66
		h6.32V95H22.21v4.66h5.22v11.59c0,2.31,0.27,4.27,0.82,5.86c0.54,1.58,1.49,2.81,2.84,3.67h10.42L41.3,115.95z"/>
	<path class="st3" d="M71.63,118.66c-0.04-0.98-0.08-2.3-0.12-3.94c-0.05-1.64-0.09-2.85-0.12-3.64V95h-7.16v12.15
		c0,2.46-0.42,4.61-1.26,6.44c-0.84,1.83-2.34,2.75-4.51,2.75c-1.51,0-2.64-0.44-3.39-1.33c-0.75-0.88-1.21-1.92-1.38-3.12
		c-0.17-1.19-0.26-2.66-0.26-4.39V95h-7.16v14.8c0,2.55,0.27,4.75,0.81,6.59c0.54,1.84,1.53,3.29,2.97,4.35
		c0.02,0.02,0.04,0.03,0.06,0.05h11.48c0.31-0.19,0.62-0.4,0.91-0.62c0.9-0.69,1.67-1.54,2.31-2.54l0.16,3.16h6.77
		C71.68,120.04,71.65,119.33,71.63,118.66z"/>
	<path class="st3" d="M104.48,118.53c-0.03-1.35-0.06-2.92-0.1-4.7V81.55h-7.16v12.28c0,0.4,0,0.79,0.01,1.17
		c0.03,1.44,0.12,2.69,0.26,3.76c-0.91-1.65-2.08-2.9-3.48-3.76H83.45c-0.35,0.2-0.69,0.43-1.01,0.68c-1.72,1.34-2.99,3.1-3.81,5.28
		c-0.82,2.18-1.23,4.51-1.23,6.99c0,1.88,0.22,3.67,0.67,5.39c0.45,1.71,1.14,3.25,2.06,4.59c0.8,1.16,1.81,2.11,3.03,2.86h11.37
		c1.36-0.88,2.42-2.08,3.17-3.63l0.08,3.63h6.75C104.52,120.12,104.5,119.37,104.48,118.53z M96.65,112.26
		c-0.46,1.28-1.17,2.34-2.15,3.17c-0.98,0.83-2.15,1.24-3.51,1.24c-2.02,0-3.55-0.88-4.59-2.65c-1.04-1.77-1.56-3.74-1.56-5.92
		c0-2.33,0.47-4.32,1.41-5.97c0.94-1.65,2.48-2.47,4.63-2.47c1.44,0,2.65,0.42,3.62,1.27c0.98,0.85,1.69,1.91,2.15,3.19
		c0.46,1.28,0.68,2.64,0.68,4.08C97.33,109.62,97.1,110.97,96.65,112.26z"/>
	<path class="st3" d="M111.77,82.35v6.78h7.38v-6.78H111.77z M111.88,95v25.79h7.16V95H111.88z"/>
	<path class="st3" d="M152.47,102.36c-0.67-1.8-1.63-3.38-2.88-4.72c-1.02-1.08-2.2-1.97-3.56-2.65h-13.93
		c-0.17,0.09-0.34,0.18-0.51,0.27c-2.18,1.21-3.87,2.91-5.07,5.1c-1.2,2.19-1.81,4.7-1.81,7.52c0,2.83,0.59,5.37,1.76,7.63
		c1.18,2.26,2.85,4.01,5.02,5.25c0.01,0.01,0.02,0.01,0.03,0.02h15.14c1.06-0.58,2-1.28,2.84-2.11c1.27-1.25,2.25-2.76,2.94-4.54
		c0.69-1.78,1.04-3.73,1.04-5.87C153.47,106.14,153.14,104.17,152.47,102.36z M145.61,111.41c-0.28,1.08-0.7,2.06-1.24,2.92
		c-0.55,0.86-1.26,1.57-2.13,2.13c-0.88,0.56-1.89,0.83-3.04,0.83c-1.62,0-2.96-0.46-4.02-1.38c-1.06-0.92-1.83-2.1-2.31-3.54
		c-0.48-1.44-0.72-2.93-0.72-4.48c0-1.44,0.26-2.86,0.77-4.27c0.51-1.41,1.3-2.57,2.37-3.48c1.07-0.91,2.34-1.37,3.81-1.37
		c1.55,0,2.85,0.46,3.91,1.39c1.06,0.93,1.83,2.11,2.31,3.55c0.48,1.44,0.72,2.9,0.72,4.4
		C146.03,109.23,145.89,110.33,145.61,111.41z"/>
</g>
<line class="st3" x1="18.88" y1="95" x2="5.29" y2="95"/>
<line class="st3" x1="53.41" y1="95" x2="46.25" y2="95"/>
<line class="st3" x1="41.03" y1="95" x2="22.21" y2="95"/>
<line class="st3" x1="146.03" y1="95" x2="132.09" y2="95"/>
<line class="st3" x1="71.38" y1="95" x2="64.22" y2="95"/>
<line class="st3" x1="119.04" y1="120.79" x2="111.88" y2="120.79"/>
<line class="st3" x1="146.65" y1="120.79" x2="131.52" y2="120.79"/>
<line class="st3" x1="71.73" y1="120.79" x2="64.95" y2="120.79"/>
<line class="st3" x1="61.57" y1="120.79" x2="50.09" y2="120.79"/>
<line class="st3" x1="41.51" y1="120.79" x2="31.09" y2="120.79"/>
<line class="st3" x1="15.6" y1="120.79" x2="0.49" y2="120.79"/>
</svg>
